<svg xmlns="http://www.w3.org/2000/svg" viewBox="0 0 1280 720" width="1280" height="720" role="img" aria-label="AI 챗봇과 감정적 교류의 위험성 — 구글 제미나이 소송 사건">
<defs><linearGradient id="bg" x1="0" y1="0" x2="1" y2="1"><stop offset="0" stop-color="#082f49"/><stop offset="1" stop-color="#0f172a"/></linearGradient><radialGradient id="glow" cx="50%" cy="44%" r="55%"><stop offset="0" stop-color="#38bdf8" stop-opacity=".30"/><stop offset="1" stop-color="#38bdf8" stop-opacity="0"/></radialGradient><pattern id="grid" width="48" height="48" patternUnits="userSpaceOnUse"><path d="M48 0 L0 0 0 48" fill="none" stroke="#94a3b8" stroke-width=".7" opacity=".15"/></pattern></defs>
<rect width="1280" height="720" fill="url(#bg)"/><rect width="1280" height="720" fill="url(#grid)"/><rect width="1280" height="720" fill="url(#glow)"/><circle cx="1038" cy="181" r="1" fill="#e2e8f0" opacity="0.26"/><circle cx="233" cy="640" r="1" fill="#e2e8f0" opacity="0.17"/><circle cx="642" cy="491" r="1" fill="#e2e8f0" opacity="0.27"/><circle cx="177" cy="630" r="1" fill="#e2e8f0" opacity="0.21"/><circle cx="549" cy="290" r="2" fill="#e2e8f0" opacity="0.21"/><circle cx="693" cy="358" r="2" fill="#e2e8f0" opacity="0.20"/><circle cx="971" cy="371" r="2" fill="#e2e8f0" opacity="0.31"/><circle cx="937" cy="52" r="1" fill="#e2e8f0" opacity="0.32"/><circle cx="805" cy="364" r="2" fill="#e2e8f0" opacity="0.38"/><circle cx="808" cy="544" r="1" fill="#e2e8f0" opacity="0.21"/><circle cx="443" cy="55" r="2" fill="#e2e8f0" opacity="0.39"/><circle cx="196" cy="30" r="1" fill="#e2e8f0" opacity="0.40"/><circle cx="532" cy="262" r="2" fill="#e2e8f0" opacity="0.40"/><circle cx="52" cy="58" r="2" fill="#e2e8f0" opacity="0.17"/><circle cx="1028" cy="280" r="1" fill="#e2e8f0" opacity="0.20"/><circle cx="499" cy="650" r="1" fill="#e2e8f0" opacity="0.38"/><circle cx="1173" cy="587" r="2" fill="#e2e8f0" opacity="0.32"/><circle cx="560" cy="549" r="2" fill="#e2e8f0" opacity="0.19"/><circle cx="238" cy="152" r="1" fill="#e2e8f0" opacity="0.24"/><circle cx="237" cy="97" r="1" fill="#e2e8f0" opacity="0.32"/><circle cx="265" cy="33" r="2" fill="#e2e8f0" opacity="0.38"/><circle cx="605" cy="77" r="1" fill="#e2e8f0" opacity="0.40"/><circle cx="748" cy="428" r="1" fill="#e2e8f0" opacity="0.14"/><circle cx="412" cy="638" r="1" fill="#e2e8f0" opacity="0.37"/><circle cx="411" cy="227" r="2" fill="#e2e8f0" opacity="0.31"/><circle cx="874" cy="676" r="2" fill="#e2e8f0" opacity="0.24"/><circle cx="1000" cy="631" r="1" fill="#e2e8f0" opacity="0.16"/><circle cx="630" cy="631" r="1" fill="#e2e8f0" opacity="0.13"/><circle cx="65" cy="93" r="2" fill="#e2e8f0" opacity="0.41"/><circle cx="410" cy="525" r="1" fill="#e2e8f0" opacity="0.33"/><circle cx="1060" cy="410" r="1" fill="#e2e8f0" opacity="0.29"/><circle cx="595" cy="296" r="2" fill="#e2e8f0" opacity="0.25"/><circle cx="729" cy="58" r="1" fill="#e2e8f0" opacity="0.41"/><circle cx="269" cy="60" r="2" fill="#e2e8f0" opacity="0.17"/><circle cx="90" cy="414" r="1" fill="#e2e8f0" opacity="0.13"/><circle cx="134" cy="506" r="1" fill="#e2e8f0" opacity="0.33"/><circle cx="516" cy="335" r="1" fill="#e2e8f0" opacity="0.30"/><circle cx="777" cy="417" r="1" fill="#e2e8f0" opacity="0.21"/><circle cx="360" cy="639" r="1" fill="#e2e8f0" opacity="0.14"/><circle cx="528" cy="632" r="1" fill="#e2e8f0" opacity="0.14"/><circle cx="870" cy="67" r="1" fill="#e2e8f0" opacity="0.28"/><circle cx="492" cy="501" r="1" fill="#e2e8f0" opacity="0.37"/><circle cx="659" cy="234" r="1" fill="#e2e8f0" opacity="0.24"/><circle cx="834" cy="373" r="1" fill="#e2e8f0" opacity="0.22"/><circle cx="787" cy="682" r="1" fill="#e2e8f0" opacity="0.28"/><rect x="80" y="95" width="207" height="71" rx="18" fill="#fff" opacity=".045" stroke="#38bdf8" stroke-width="1.4"/><rect x="295" y="490" width="175" height="83" rx="18" fill="#fff" opacity=".045" stroke="#38bdf8" stroke-width="1.4"/><rect x="510" y="95" width="230" height="118" rx="18" fill="#fff" opacity=".045" stroke="#38bdf8" stroke-width="1.4"/><rect x="725" y="490" width="158" height="111" rx="18" fill="#fff" opacity=".045" stroke="#38bdf8" stroke-width="1.4"/><rect x="940" y="95" width="201" height="122" rx="18" fill="#fff" opacity=".045" stroke="#38bdf8" stroke-width="1.4"/><rect x="1155" y="490" width="189" height="87" rx="18" fill="#fff" opacity=".045" stroke="#38bdf8" stroke-width="1.4"/><g><g stroke="#fb7185" stroke-width="6" opacity=".78"><line x1="500" y1="250" x2="630" y2="320"/><line x1="630" y1="320" x2="780" y2="250"/><line x1="630" y1="320" x2="650" y2="455"/><line x1="500" y1="250" x2="650" y2="455"/><line x1="780" y1="250" x2="650" y2="455"/></g><g fill="#38bdf8"><circle cx="500" cy="250" r="38"/><circle cx="780" cy="250" r="38"/><circle cx="630" cy="320" r="48"/><circle cx="650" cy="455" r="38"/></g></g><path d="M80 610 C310 530 460 660 690 585 C870 526 1030 558 1200 485" fill="none" stroke="#fb7185" stroke-width="4" opacity=".28"/><rect x="64" y="56" width="1152" height="608" rx="36" fill="none" stroke="#e2e8f0" stroke-width="2" opacity=".12"/></svg>