<svg xmlns="http://www.w3.org/2000/svg" viewBox="0 0 1280 720" width="1280" height="720" role="img" aria-label="AI 에이전트의 테스트 결과를 Jira에 남기는 법 — 재현 가능한 업무 로그 만들기">
  <defs>
    <linearGradient id="bg" x1="0" y1="0" x2="1" y2="1"><stop offset="0" stop-color="#052e16"/><stop offset="1" stop-color="#064e3b"/></linearGradient>
    <radialGradient id="glow" cx="50%" cy="45%" r="55%"><stop offset="0" stop-color="#34d399" stop-opacity=".30"/><stop offset="1" stop-color="#34d399" stop-opacity="0"/></radialGradient>
    <pattern id="grid" width="48" height="48" patternUnits="userSpaceOnUse"><path d="M 48 0 L 0 0 0 48" fill="none" stroke="#94a3b8" stroke-width=".7" opacity=".16"/></pattern>
  </defs>
  <rect width="1280" height="720" fill="url(#bg)"/>
  <rect width="1280" height="720" fill="url(#grid)"/>
  <rect width="1280" height="720" fill="url(#glow)"/>
  <circle cx="871" cy="295" r="2" fill="#e2e8f0" opacity="0.23"/><circle cx="966" cy="346" r="2" fill="#e2e8f0" opacity="0.30"/><circle cx="1119" cy="306" r="2" fill="#e2e8f0" opacity="0.24"/><circle cx="967" cy="122" r="2" fill="#e2e8f0" opacity="0.15"/><circle cx="1019" cy="435" r="2" fill="#e2e8f0" opacity="0.31"/><circle cx="295" cy="421" r="1" fill="#e2e8f0" opacity="0.33"/><circle cx="199" cy="545" r="1" fill="#e2e8f0" opacity="0.26"/><circle cx="660" cy="460" r="1" fill="#e2e8f0" opacity="0.33"/><circle cx="484" cy="511" r="1" fill="#e2e8f0" opacity="0.31"/><circle cx="1101" cy="482" r="1" fill="#e2e8f0" opacity="0.33"/><circle cx="1127" cy="546" r="1" fill="#e2e8f0" opacity="0.27"/><circle cx="130" cy="273" r="1" fill="#e2e8f0" opacity="0.27"/><circle cx="1193" cy="602" r="2" fill="#e2e8f0" opacity="0.38"/><circle cx="643" cy="560" r="2" fill="#e2e8f0" opacity="0.21"/><circle cx="277" cy="304" r="1" fill="#e2e8f0" opacity="0.43"/><circle cx="673" cy="371" r="2" fill="#e2e8f0" opacity="0.40"/><circle cx="96" cy="590" r="1" fill="#e2e8f0" opacity="0.14"/><circle cx="378" cy="51" r="2" fill="#e2e8f0" opacity="0.17"/><circle cx="827" cy="570" r="1" fill="#e2e8f0" opacity="0.34"/><circle cx="92" cy="617" r="1" fill="#e2e8f0" opacity="0.37"/><circle cx="879" cy="59" r="1" fill="#e2e8f0" opacity="0.34"/><circle cx="859" cy="215" r="2" fill="#e2e8f0" opacity="0.12"/><circle cx="1040" cy="494" r="1" fill="#e2e8f0" opacity="0.14"/><circle cx="976" cy="133" r="1" fill="#e2e8f0" opacity="0.34"/><circle cx="224" cy="664" r="1" fill="#e2e8f0" opacity="0.31"/><circle cx="486" cy="235" r="2" fill="#e2e8f0" opacity="0.33"/><circle cx="877" cy="99" r="2" fill="#e2e8f0" opacity="0.23"/><circle cx="930" cy="66" r="1" fill="#e2e8f0" opacity="0.22"/><circle cx="47" cy="501" r="1" fill="#e2e8f0" opacity="0.38"/><circle cx="267" cy="552" r="2" fill="#e2e8f0" opacity="0.39"/><circle cx="50" cy="197" r="1" fill="#e2e8f0" opacity="0.19"/><circle cx="467" cy="349" r="1" fill="#e2e8f0" opacity="0.25"/><circle cx="1112" cy="620" r="1" fill="#e2e8f0" opacity="0.13"/><circle cx="916" cy="298" r="1" fill="#e2e8f0" opacity="0.43"/><circle cx="758" cy="139" r="2" fill="#e2e8f0" opacity="0.34"/><circle cx="439" cy="401" r="2" fill="#e2e8f0" opacity="0.39"/><circle cx="267" cy="179" r="2" fill="#e2e8f0" opacity="0.19"/><circle cx="861" cy="194" r="1" fill="#e2e8f0" opacity="0.34"/><circle cx="1021" cy="386" r="2" fill="#e2e8f0" opacity="0.24"/><circle cx="868" cy="626" r="2" fill="#e2e8f0" opacity="0.31"/><circle cx="812" cy="507" r="1" fill="#e2e8f0" opacity="0.16"/><circle cx="1089" cy="259" r="1" fill="#e2e8f0" opacity="0.13"/>
  <rect x="80" y="95" width="156" height="73" rx="18" fill="#ffffff" opacity=".045" stroke="#34d399" stroke-width="1.5"/><rect x="310" y="485" width="168" height="92" rx="18" fill="#ffffff" opacity=".045" stroke="#34d399" stroke-width="1.5"/><rect x="540" y="95" width="191" height="91" rx="18" fill="#ffffff" opacity=".045" stroke="#34d399" stroke-width="1.5"/><rect x="770" y="485" width="162" height="120" rx="18" fill="#ffffff" opacity=".045" stroke="#34d399" stroke-width="1.5"/><rect x="1000" y="95" width="171" height="98" rx="18" fill="#ffffff" opacity=".045" stroke="#34d399" stroke-width="1.5"/>
  <g opacity=".95"><rect x="430" y="190" width="420" height="250" rx="26" fill="#0f172a" stroke="#34d399" stroke-width="4"/><path d="M490 275 l50 50 l110 -125" fill="none" stroke="#34d399" stroke-width="18" stroke-linecap="round" stroke-linejoin="round"/><g stroke="#fbbf24" stroke-width="7" opacity=".8"><line x1="680" y1="250" x2="790" y2="250"/><line x1="680" y1="310" x2="790" y2="310"/><line x1="680" y1="370" x2="760" y2="370"/></g></g>
  <path d="M80 610 C310 530 460 660 690 585 C870 526 1030 558 1200 485" fill="none" stroke="#fbbf24" stroke-width="4" opacity=".28"/>
  <rect x="64" y="56" width="1152" height="608" rx="36" fill="none" stroke="#e2e8f0" stroke-width="2" opacity=".12"/>
</svg>