<svg xmlns="http://www.w3.org/2000/svg" viewBox="0 0 1280 720" width="1280" height="720" role="img" aria-label="Jira Issue로 요구사항 분석하기 — 에이전트가 바로 코딩하지 않게 만드는 방법">
  <defs>
    <linearGradient id="bg" x1="0" y1="0" x2="1" y2="1"><stop offset="0" stop-color="#4c0519"/><stop offset="1" stop-color="#881337"/></linearGradient>
    <radialGradient id="glow" cx="50%" cy="45%" r="55%"><stop offset="0" stop-color="#fb7185" stop-opacity=".30"/><stop offset="1" stop-color="#fb7185" stop-opacity="0"/></radialGradient>
    <pattern id="grid" width="48" height="48" patternUnits="userSpaceOnUse"><path d="M 48 0 L 0 0 0 48" fill="none" stroke="#94a3b8" stroke-width=".7" opacity=".16"/></pattern>
  </defs>
  <rect width="1280" height="720" fill="url(#bg)"/>
  <rect width="1280" height="720" fill="url(#grid)"/>
  <rect width="1280" height="720" fill="url(#glow)"/>
  <circle cx="1195" cy="459" r="2" fill="#e2e8f0" opacity="0.38"/><circle cx="1080" cy="108" r="2" fill="#e2e8f0" opacity="0.41"/><circle cx="1117" cy="374" r="1" fill="#e2e8f0" opacity="0.14"/><circle cx="690" cy="207" r="1" fill="#e2e8f0" opacity="0.44"/><circle cx="85" cy="466" r="1" fill="#e2e8f0" opacity="0.13"/><circle cx="894" cy="76" r="1" fill="#e2e8f0" opacity="0.38"/><circle cx="339" cy="653" r="2" fill="#e2e8f0" opacity="0.39"/><circle cx="184" cy="666" r="1" fill="#e2e8f0" opacity="0.32"/><circle cx="1047" cy="534" r="1" fill="#e2e8f0" opacity="0.32"/><circle cx="84" cy="254" r="2" fill="#e2e8f0" opacity="0.35"/><circle cx="748" cy="85" r="2" fill="#e2e8f0" opacity="0.24"/><circle cx="487" cy="504" r="1" fill="#e2e8f0" opacity="0.18"/><circle cx="1177" cy="105" r="1" fill="#e2e8f0" opacity="0.22"/><circle cx="197" cy="283" r="1" fill="#e2e8f0" opacity="0.43"/><circle cx="1099" cy="136" r="1" fill="#e2e8f0" opacity="0.36"/><circle cx="582" cy="340" r="2" fill="#e2e8f0" opacity="0.29"/><circle cx="598" cy="296" r="1" fill="#e2e8f0" opacity="0.30"/><circle cx="664" cy="654" r="1" fill="#e2e8f0" opacity="0.43"/><circle cx="502" cy="670" r="1" fill="#e2e8f0" opacity="0.28"/><circle cx="972" cy="184" r="1" fill="#e2e8f0" opacity="0.22"/><circle cx="198" cy="512" r="2" fill="#e2e8f0" opacity="0.40"/><circle cx="537" cy="111" r="1" fill="#e2e8f0" opacity="0.29"/><circle cx="648" cy="112" r="1" fill="#e2e8f0" opacity="0.44"/><circle cx="193" cy="639" r="1" fill="#e2e8f0" opacity="0.36"/><circle cx="589" cy="307" r="1" fill="#e2e8f0" opacity="0.17"/><circle cx="49" cy="516" r="1" fill="#e2e8f0" opacity="0.15"/><circle cx="730" cy="199" r="1" fill="#e2e8f0" opacity="0.35"/><circle cx="878" cy="294" r="2" fill="#e2e8f0" opacity="0.23"/><circle cx="1004" cy="657" r="1" fill="#e2e8f0" opacity="0.12"/><circle cx="599" cy="63" r="2" fill="#e2e8f0" opacity="0.18"/><circle cx="874" cy="239" r="2" fill="#e2e8f0" opacity="0.24"/><circle cx="310" cy="127" r="1" fill="#e2e8f0" opacity="0.17"/><circle cx="217" cy="495" r="1" fill="#e2e8f0" opacity="0.41"/><circle cx="626" cy="505" r="1" fill="#e2e8f0" opacity="0.18"/><circle cx="1203" cy="430" r="1" fill="#e2e8f0" opacity="0.39"/><circle cx="803" cy="375" r="1" fill="#e2e8f0" opacity="0.23"/><circle cx="1239" cy="554" r="1" fill="#e2e8f0" opacity="0.43"/><circle cx="273" cy="339" r="1" fill="#e2e8f0" opacity="0.37"/><circle cx="145" cy="96" r="1" fill="#e2e8f0" opacity="0.25"/><circle cx="987" cy="70" r="2" fill="#e2e8f0" opacity="0.35"/><circle cx="1028" cy="137" r="1" fill="#e2e8f0" opacity="0.35"/><circle cx="803" cy="71" r="2" fill="#e2e8f0" opacity="0.29"/>
  <rect x="80" y="95" width="206" height="128" rx="18" fill="#ffffff" opacity=".045" stroke="#fb7185" stroke-width="1.5"/><rect x="310" y="485" width="183" height="98" rx="18" fill="#ffffff" opacity=".045" stroke="#fb7185" stroke-width="1.5"/><rect x="540" y="95" width="167" height="92" rx="18" fill="#ffffff" opacity=".045" stroke="#fb7185" stroke-width="1.5"/><rect x="770" y="485" width="156" height="75" rx="18" fill="#ffffff" opacity=".045" stroke="#fb7185" stroke-width="1.5"/><rect x="1000" y="95" width="154" height="94" rx="18" fill="#ffffff" opacity=".045" stroke="#fb7185" stroke-width="1.5"/>
  <g opacity=".95"><g stroke="#fb7185" stroke-width="4" fill="#0f172a"><rect x="380" y="170" width="220" height="100" rx="18"/><rect x="680" y="170" width="220" height="100" rx="18"/><rect x="530" y="365" width="220" height="100" rx="18"/></g><g stroke="#fbbf24" stroke-width="8" fill="none" stroke-linecap="round"><path d="M600 220 H680"/><path d="M490 270 L600 365"/><path d="M790 270 L680 365"/></g></g>
  <path d="M80 610 C310 530 460 660 690 585 C870 526 1030 558 1200 485" fill="none" stroke="#fbbf24" stroke-width="4" opacity=".28"/>
  <rect x="64" y="56" width="1152" height="608" rx="36" fill="none" stroke="#e2e8f0" stroke-width="2" opacity=".12"/>
</svg>