<svg xmlns="http://www.w3.org/2000/svg" viewBox="0 0 1280 720" width="1280" height="720" role="img" aria-label="Kubernetes AI Gateway: AI 워크로드 네트워킹의 새 표준">
<defs><linearGradient id="bg" x1="0" y1="0" x2="1" y2="1"><stop offset="0" stop-color="#020617"/><stop offset="1" stop-color="#1e293b"/></linearGradient><radialGradient id="glow" cx="50%" cy="44%" r="55%"><stop offset="0" stop-color="#22d3ee" stop-opacity=".30"/><stop offset="1" stop-color="#22d3ee" stop-opacity="0"/></radialGradient><pattern id="grid" width="48" height="48" patternUnits="userSpaceOnUse"><path d="M48 0 L0 0 0 48" fill="none" stroke="#94a3b8" stroke-width=".7" opacity=".15"/></pattern></defs>
<rect width="1280" height="720" fill="url(#bg)"/><rect width="1280" height="720" fill="url(#grid)"/><rect width="1280" height="720" fill="url(#glow)"/><circle cx="626" cy="260" r="1" fill="#e2e8f0" opacity="0.33"/><circle cx="96" cy="125" r="1" fill="#e2e8f0" opacity="0.39"/><circle cx="873" cy="267" r="1" fill="#e2e8f0" opacity="0.34"/><circle cx="90" cy="652" r="1" fill="#e2e8f0" opacity="0.16"/><circle cx="201" cy="265" r="2" fill="#e2e8f0" opacity="0.16"/><circle cx="1163" cy="594" r="2" fill="#e2e8f0" opacity="0.15"/><circle cx="221" cy="557" r="2" fill="#e2e8f0" opacity="0.31"/><circle cx="95" cy="533" r="1" fill="#e2e8f0" opacity="0.26"/><circle cx="1220" cy="220" r="1" fill="#e2e8f0" opacity="0.30"/><circle cx="991" cy="93" r="1" fill="#e2e8f0" opacity="0.21"/><circle cx="886" cy="672" r="2" fill="#e2e8f0" opacity="0.35"/><circle cx="467" cy="660" r="1" fill="#e2e8f0" opacity="0.30"/><circle cx="974" cy="439" r="1" fill="#e2e8f0" opacity="0.29"/><circle cx="379" cy="548" r="1" fill="#e2e8f0" opacity="0.39"/><circle cx="335" cy="41" r="1" fill="#e2e8f0" opacity="0.31"/><circle cx="171" cy="34" r="1" fill="#e2e8f0" opacity="0.28"/><circle cx="942" cy="281" r="1" fill="#e2e8f0" opacity="0.13"/><circle cx="242" cy="332" r="1" fill="#e2e8f0" opacity="0.29"/><circle cx="1067" cy="611" r="1" fill="#e2e8f0" opacity="0.25"/><circle cx="61" cy="65" r="1" fill="#e2e8f0" opacity="0.40"/><circle cx="483" cy="469" r="1" fill="#e2e8f0" opacity="0.30"/><circle cx="311" cy="294" r="1" fill="#e2e8f0" opacity="0.26"/><circle cx="1226" cy="554" r="1" fill="#e2e8f0" opacity="0.40"/><circle cx="180" cy="651" r="1" fill="#e2e8f0" opacity="0.13"/><circle cx="1109" cy="131" r="1" fill="#e2e8f0" opacity="0.31"/><circle cx="618" cy="588" r="1" fill="#e2e8f0" opacity="0.41"/><circle cx="489" cy="581" r="1" fill="#e2e8f0" opacity="0.36"/><circle cx="721" cy="407" r="1" fill="#e2e8f0" opacity="0.18"/><circle cx="317" cy="149" r="2" fill="#e2e8f0" opacity="0.18"/><circle cx="879" cy="602" r="2" fill="#e2e8f0" opacity="0.20"/><circle cx="617" cy="655" r="2" fill="#e2e8f0" opacity="0.36"/><circle cx="396" cy="389" r="1" fill="#e2e8f0" opacity="0.34"/><circle cx="157" cy="162" r="1" fill="#e2e8f0" opacity="0.30"/><circle cx="196" cy="383" r="1" fill="#e2e8f0" opacity="0.15"/><circle cx="312" cy="587" r="1" fill="#e2e8f0" opacity="0.26"/><circle cx="1150" cy="444" r="1" fill="#e2e8f0" opacity="0.25"/><circle cx="232" cy="63" r="2" fill="#e2e8f0" opacity="0.36"/><circle cx="469" cy="47" r="2" fill="#e2e8f0" opacity="0.13"/><circle cx="475" cy="516" r="1" fill="#e2e8f0" opacity="0.14"/><circle cx="158" cy="396" r="1" fill="#e2e8f0" opacity="0.34"/><circle cx="1046" cy="50" r="2" fill="#e2e8f0" opacity="0.14"/><circle cx="521" cy="461" r="1" fill="#e2e8f0" opacity="0.16"/><circle cx="1136" cy="177" r="2" fill="#e2e8f0" opacity="0.39"/><circle cx="811" cy="525" r="1" fill="#e2e8f0" opacity="0.20"/><circle cx="506" cy="246" r="1" fill="#e2e8f0" opacity="0.31"/><rect x="80" y="95" width="188" height="75" rx="18" fill="#fff" opacity=".045" stroke="#22d3ee" stroke-width="1.4"/><rect x="295" y="490" width="152" height="87" rx="18" fill="#fff" opacity=".045" stroke="#22d3ee" stroke-width="1.4"/><rect x="510" y="95" width="172" height="100" rx="18" fill="#fff" opacity=".045" stroke="#22d3ee" stroke-width="1.4"/><rect x="725" y="490" width="170" height="113" rx="18" fill="#fff" opacity=".045" stroke="#22d3ee" stroke-width="1.4"/><rect x="940" y="95" width="182" height="87" rx="18" fill="#fff" opacity=".045" stroke="#22d3ee" stroke-width="1.4"/><rect x="1155" y="490" width="230" height="80" rx="18" fill="#fff" opacity=".045" stroke="#22d3ee" stroke-width="1.4"/><g><polygon points="739.6,372.5 640.0,430.0 540.4,372.5 540.4,257.5 640.0,200.0 739.6,257.5" fill="#0f172a" stroke="#22d3ee" stroke-width="6"/><circle cx="640" cy="315" r="52" fill="#22d3ee" opacity=".22" stroke="#a78bfa" stroke-width="5"/></g><path d="M80 610 C310 530 460 660 690 585 C870 526 1030 558 1200 485" fill="none" stroke="#a78bfa" stroke-width="4" opacity=".28"/><rect x="64" y="56" width="1152" height="608" rx="36" fill="none" stroke="#e2e8f0" stroke-width="2" opacity=".12"/></svg>