<svg xmlns="http://www.w3.org/2000/svg" viewBox="0 0 1280 720" width="1280" height="720" role="img" aria-label="개발자가 AI 비서를 1달 써본 솔직 후기 - 좋은 점, 아쉬운 점, 비용까지">
<defs><linearGradient id="bg" x1="0" y1="0" x2="1" y2="1"><stop offset="0" stop-color="#4c0519"/><stop offset="1" stop-color="#881337"/></linearGradient><radialGradient id="glow" cx="50%" cy="44%" r="55%"><stop offset="0" stop-color="#fb7185" stop-opacity=".30"/><stop offset="1" stop-color="#fb7185" stop-opacity="0"/></radialGradient><pattern id="grid" width="48" height="48" patternUnits="userSpaceOnUse"><path d="M48 0 L0 0 0 48" fill="none" stroke="#94a3b8" stroke-width=".7" opacity=".15"/></pattern></defs>
<rect width="1280" height="720" fill="url(#bg)"/><rect width="1280" height="720" fill="url(#grid)"/><rect width="1280" height="720" fill="url(#glow)"/><circle cx="359" cy="613" r="1" fill="#e2e8f0" opacity="0.27"/><circle cx="630" cy="208" r="1" fill="#e2e8f0" opacity="0.29"/><circle cx="1038" cy="626" r="2" fill="#e2e8f0" opacity="0.37"/><circle cx="302" cy="218" r="1" fill="#e2e8f0" opacity="0.38"/><circle cx="848" cy="556" r="1" fill="#e2e8f0" opacity="0.19"/><circle cx="1216" cy="606" r="1" fill="#e2e8f0" opacity="0.12"/><circle cx="85" cy="455" r="2" fill="#e2e8f0" opacity="0.27"/><circle cx="519" cy="239" r="1" fill="#e2e8f0" opacity="0.24"/><circle cx="124" cy="172" r="1" fill="#e2e8f0" opacity="0.16"/><circle cx="487" cy="494" r="2" fill="#e2e8f0" opacity="0.34"/><circle cx="684" cy="597" r="1" fill="#e2e8f0" opacity="0.33"/><circle cx="211" cy="157" r="1" fill="#e2e8f0" opacity="0.16"/><circle cx="185" cy="153" r="1" fill="#e2e8f0" opacity="0.25"/><circle cx="205" cy="508" r="1" fill="#e2e8f0" opacity="0.22"/><circle cx="460" cy="55" r="2" fill="#e2e8f0" opacity="0.35"/><circle cx="552" cy="208" r="1" fill="#e2e8f0" opacity="0.19"/><circle cx="354" cy="372" r="2" fill="#e2e8f0" opacity="0.38"/><circle cx="351" cy="435" r="1" fill="#e2e8f0" opacity="0.37"/><circle cx="81" cy="64" r="1" fill="#e2e8f0" opacity="0.35"/><circle cx="1053" cy="394" r="2" fill="#e2e8f0" opacity="0.30"/><circle cx="572" cy="682" r="1" fill="#e2e8f0" opacity="0.25"/><circle cx="737" cy="340" r="1" fill="#e2e8f0" opacity="0.24"/><circle cx="180" cy="198" r="1" fill="#e2e8f0" opacity="0.35"/><circle cx="1260" cy="360" r="1" fill="#e2e8f0" opacity="0.20"/><circle cx="1001" cy="337" r="1" fill="#e2e8f0" opacity="0.17"/><circle cx="943" cy="84" r="1" fill="#e2e8f0" opacity="0.34"/><circle cx="50" cy="62" r="1" fill="#e2e8f0" opacity="0.20"/><circle cx="1222" cy="263" r="1" fill="#e2e8f0" opacity="0.27"/><circle cx="121" cy="441" r="1" fill="#e2e8f0" opacity="0.18"/><circle cx="448" cy="157" r="2" fill="#e2e8f0" opacity="0.42"/><circle cx="442" cy="551" r="1" fill="#e2e8f0" opacity="0.23"/><circle cx="399" cy="609" r="1" fill="#e2e8f0" opacity="0.34"/><circle cx="502" cy="492" r="2" fill="#e2e8f0" opacity="0.20"/><circle cx="78" cy="560" r="1" fill="#e2e8f0" opacity="0.16"/><circle cx="634" cy="333" r="1" fill="#e2e8f0" opacity="0.37"/><circle cx="830" cy="344" r="1" fill="#e2e8f0" opacity="0.13"/><circle cx="1061" cy="60" r="2" fill="#e2e8f0" opacity="0.37"/><circle cx="930" cy="551" r="1" fill="#e2e8f0" opacity="0.33"/><circle cx="1120" cy="374" r="1" fill="#e2e8f0" opacity="0.39"/><circle cx="121" cy="304" r="1" fill="#e2e8f0" opacity="0.15"/><circle cx="241" cy="538" r="1" fill="#e2e8f0" opacity="0.41"/><circle cx="616" cy="237" r="2" fill="#e2e8f0" opacity="0.36"/><circle cx="1162" cy="683" r="1" fill="#e2e8f0" opacity="0.30"/><circle cx="1121" cy="309" r="2" fill="#e2e8f0" opacity="0.14"/><circle cx="497" cy="363" r="1" fill="#e2e8f0" opacity="0.40"/><rect x="80" y="95" width="196" height="108" rx="18" fill="#fff" opacity=".045" stroke="#fb7185" stroke-width="1.4"/><rect x="295" y="490" width="231" height="126" rx="18" fill="#fff" opacity=".045" stroke="#fb7185" stroke-width="1.4"/><rect x="510" y="95" width="233" height="98" rx="18" fill="#fff" opacity=".045" stroke="#fb7185" stroke-width="1.4"/><rect x="725" y="490" width="238" height="79" rx="18" fill="#fff" opacity=".045" stroke="#fb7185" stroke-width="1.4"/><rect x="940" y="95" width="211" height="93" rx="18" fill="#fff" opacity=".045" stroke="#fb7185" stroke-width="1.4"/><rect x="1155" y="490" width="213" height="90" rx="18" fill="#fff" opacity=".045" stroke="#fb7185" stroke-width="1.4"/><g><g stroke="#fbbf24" stroke-width="6" opacity=".78"><line x1="500" y1="250" x2="630" y2="320"/><line x1="630" y1="320" x2="780" y2="250"/><line x1="630" y1="320" x2="650" y2="455"/><line x1="500" y1="250" x2="650" y2="455"/><line x1="780" y1="250" x2="650" y2="455"/></g><g fill="#fb7185"><circle cx="500" cy="250" r="38"/><circle cx="780" cy="250" r="38"/><circle cx="630" cy="320" r="48"/><circle cx="650" cy="455" r="38"/></g></g><path d="M80 610 C310 530 460 660 690 585 C870 526 1030 558 1200 485" fill="none" stroke="#fbbf24" stroke-width="4" opacity=".28"/><rect x="64" y="56" width="1152" height="608" rx="36" fill="none" stroke="#e2e8f0" stroke-width="2" opacity=".12"/></svg>