<svg xmlns="http://www.w3.org/2000/svg" viewBox="0 0 1280 720" width="1280" height="720" role="img" aria-label="Grok 4.20 출시 리뷰: xAI의 멀티 에이전트 아키텍처가 만든 차세대 AI">
<defs><linearGradient id="bg" x1="0" y1="0" x2="1" y2="1"><stop offset="0" stop-color="#4c0519"/><stop offset="1" stop-color="#881337"/></linearGradient><radialGradient id="glow" cx="50%" cy="44%" r="55%"><stop offset="0" stop-color="#fb7185" stop-opacity=".30"/><stop offset="1" stop-color="#fb7185" stop-opacity="0"/></radialGradient><pattern id="grid" width="48" height="48" patternUnits="userSpaceOnUse"><path d="M48 0 L0 0 0 48" fill="none" stroke="#94a3b8" stroke-width=".7" opacity=".15"/></pattern></defs>
<rect width="1280" height="720" fill="url(#bg)"/><rect width="1280" height="720" fill="url(#grid)"/><rect width="1280" height="720" fill="url(#glow)"/><circle cx="1257" cy="296" r="1" fill="#e2e8f0" opacity="0.32"/><circle cx="661" cy="651" r="1" fill="#e2e8f0" opacity="0.25"/><circle cx="291" cy="305" r="1" fill="#e2e8f0" opacity="0.16"/><circle cx="247" cy="223" r="1" fill="#e2e8f0" opacity="0.22"/><circle cx="262" cy="471" r="1" fill="#e2e8f0" opacity="0.22"/><circle cx="100" cy="41" r="1" fill="#e2e8f0" opacity="0.37"/><circle cx="845" cy="494" r="1" fill="#e2e8f0" opacity="0.39"/><circle cx="661" cy="604" r="2" fill="#e2e8f0" opacity="0.29"/><circle cx="664" cy="512" r="2" fill="#e2e8f0" opacity="0.12"/><circle cx="758" cy="421" r="1" fill="#e2e8f0" opacity="0.14"/><circle cx="493" cy="627" r="1" fill="#e2e8f0" opacity="0.26"/><circle cx="114" cy="561" r="1" fill="#e2e8f0" opacity="0.19"/><circle cx="599" cy="133" r="1" fill="#e2e8f0" opacity="0.25"/><circle cx="1209" cy="192" r="1" fill="#e2e8f0" opacity="0.16"/><circle cx="204" cy="373" r="1" fill="#e2e8f0" opacity="0.15"/><circle cx="937" cy="668" r="1" fill="#e2e8f0" opacity="0.14"/><circle cx="485" cy="438" r="1" fill="#e2e8f0" opacity="0.12"/><circle cx="541" cy="297" r="1" fill="#e2e8f0" opacity="0.16"/><circle cx="1194" cy="304" r="1" fill="#e2e8f0" opacity="0.12"/><circle cx="740" cy="602" r="1" fill="#e2e8f0" opacity="0.21"/><circle cx="609" cy="347" r="1" fill="#e2e8f0" opacity="0.27"/><circle cx="654" cy="374" r="1" fill="#e2e8f0" opacity="0.22"/><circle cx="948" cy="668" r="1" fill="#e2e8f0" opacity="0.29"/><circle cx="571" cy="181" r="1" fill="#e2e8f0" opacity="0.18"/><circle cx="940" cy="560" r="1" fill="#e2e8f0" opacity="0.17"/><circle cx="910" cy="512" r="1" fill="#e2e8f0" opacity="0.27"/><circle cx="375" cy="40" r="1" fill="#e2e8f0" opacity="0.17"/><circle cx="304" cy="350" r="1" fill="#e2e8f0" opacity="0.38"/><circle cx="858" cy="653" r="1" fill="#e2e8f0" opacity="0.39"/><circle cx="411" cy="333" r="2" fill="#e2e8f0" opacity="0.19"/><circle cx="888" cy="172" r="1" fill="#e2e8f0" opacity="0.19"/><circle cx="837" cy="579" r="2" fill="#e2e8f0" opacity="0.35"/><circle cx="436" cy="647" r="1" fill="#e2e8f0" opacity="0.27"/><circle cx="1095" cy="590" r="1" fill="#e2e8f0" opacity="0.30"/><circle cx="1228" cy="469" r="1" fill="#e2e8f0" opacity="0.14"/><circle cx="614" cy="220" r="2" fill="#e2e8f0" opacity="0.38"/><circle cx="229" cy="682" r="2" fill="#e2e8f0" opacity="0.17"/><circle cx="453" cy="647" r="2" fill="#e2e8f0" opacity="0.25"/><circle cx="611" cy="689" r="2" fill="#e2e8f0" opacity="0.25"/><circle cx="851" cy="676" r="1" fill="#e2e8f0" opacity="0.40"/><circle cx="454" cy="175" r="1" fill="#e2e8f0" opacity="0.14"/><circle cx="183" cy="689" r="2" fill="#e2e8f0" opacity="0.13"/><circle cx="166" cy="497" r="2" fill="#e2e8f0" opacity="0.39"/><circle cx="417" cy="60" r="1" fill="#e2e8f0" opacity="0.20"/><circle cx="854" cy="283" r="1" fill="#e2e8f0" opacity="0.39"/><rect x="80" y="95" width="216" height="77" rx="18" fill="#fff" opacity=".045" stroke="#fb7185" stroke-width="1.4"/><rect x="295" y="490" width="170" height="114" rx="18" fill="#fff" opacity=".045" stroke="#fb7185" stroke-width="1.4"/><rect x="510" y="95" width="193" height="82" rx="18" fill="#fff" opacity=".045" stroke="#fb7185" stroke-width="1.4"/><rect x="725" y="490" width="179" height="101" rx="18" fill="#fff" opacity=".045" stroke="#fb7185" stroke-width="1.4"/><rect x="940" y="95" width="201" height="104" rx="18" fill="#fff" opacity=".045" stroke="#fb7185" stroke-width="1.4"/><rect x="1155" y="490" width="212" height="133" rx="18" fill="#fff" opacity=".045" stroke="#fb7185" stroke-width="1.4"/><g><g stroke="#fbbf24" stroke-width="6" opacity=".78"><line x1="500" y1="250" x2="630" y2="320"/><line x1="630" y1="320" x2="780" y2="250"/><line x1="630" y1="320" x2="650" y2="455"/><line x1="500" y1="250" x2="650" y2="455"/><line x1="780" y1="250" x2="650" y2="455"/></g><g fill="#fb7185"><circle cx="500" cy="250" r="38"/><circle cx="780" cy="250" r="38"/><circle cx="630" cy="320" r="48"/><circle cx="650" cy="455" r="38"/></g></g><path d="M80 610 C310 530 460 660 690 585 C870 526 1030 558 1200 485" fill="none" stroke="#fbbf24" stroke-width="4" opacity=".28"/><rect x="64" y="56" width="1152" height="608" rx="36" fill="none" stroke="#e2e8f0" stroke-width="2" opacity=".12"/></svg>