<svg xmlns="http://www.w3.org/2000/svg" viewBox="0 0 1280 720" width="1280" height="720" role="img" aria-label="AI 저작권 전쟁 본격화: Netflix vs ByteDance, Google Lyria 3, Meta의 6,500만 달러 로비까지">
<defs><linearGradient id="bg" x1="0" y1="0" x2="1" y2="1"><stop offset="0" stop-color="#020617"/><stop offset="1" stop-color="#1e293b"/></linearGradient><radialGradient id="glow" cx="50%" cy="44%" r="55%"><stop offset="0" stop-color="#22d3ee" stop-opacity=".30"/><stop offset="1" stop-color="#22d3ee" stop-opacity="0"/></radialGradient><pattern id="grid" width="48" height="48" patternUnits="userSpaceOnUse"><path d="M48 0 L0 0 0 48" fill="none" stroke="#94a3b8" stroke-width=".7" opacity=".15"/></pattern></defs>
<rect width="1280" height="720" fill="url(#bg)"/><rect width="1280" height="720" fill="url(#grid)"/><rect width="1280" height="720" fill="url(#glow)"/><circle cx="889" cy="604" r="1" fill="#e2e8f0" opacity="0.25"/><circle cx="402" cy="625" r="1" fill="#e2e8f0" opacity="0.29"/><circle cx="528" cy="668" r="1" fill="#e2e8f0" opacity="0.24"/><circle cx="156" cy="687" r="2" fill="#e2e8f0" opacity="0.30"/><circle cx="784" cy="603" r="1" fill="#e2e8f0" opacity="0.39"/><circle cx="1090" cy="153" r="1" fill="#e2e8f0" opacity="0.41"/><circle cx="547" cy="169" r="1" fill="#e2e8f0" opacity="0.25"/><circle cx="582" cy="358" r="1" fill="#e2e8f0" opacity="0.30"/><circle cx="1259" cy="125" r="1" fill="#e2e8f0" opacity="0.27"/><circle cx="606" cy="617" r="1" fill="#e2e8f0" opacity="0.21"/><circle cx="170" cy="301" r="1" fill="#e2e8f0" opacity="0.38"/><circle cx="55" cy="485" r="1" fill="#e2e8f0" opacity="0.30"/><circle cx="207" cy="144" r="2" fill="#e2e8f0" opacity="0.20"/><circle cx="150" cy="505" r="2" fill="#e2e8f0" opacity="0.33"/><circle cx="1067" cy="503" r="2" fill="#e2e8f0" opacity="0.30"/><circle cx="512" cy="445" r="1" fill="#e2e8f0" opacity="0.36"/><circle cx="588" cy="110" r="1" fill="#e2e8f0" opacity="0.37"/><circle cx="166" cy="546" r="1" fill="#e2e8f0" opacity="0.25"/><circle cx="1237" cy="579" r="1" fill="#e2e8f0" opacity="0.31"/><circle cx="780" cy="585" r="2" fill="#e2e8f0" opacity="0.23"/><circle cx="1099" cy="321" r="2" fill="#e2e8f0" opacity="0.26"/><circle cx="1241" cy="659" r="1" fill="#e2e8f0" opacity="0.15"/><circle cx="548" cy="341" r="2" fill="#e2e8f0" opacity="0.22"/><circle cx="826" cy="638" r="1" fill="#e2e8f0" opacity="0.38"/><circle cx="21" cy="602" r="1" fill="#e2e8f0" opacity="0.28"/><circle cx="444" cy="568" r="2" fill="#e2e8f0" opacity="0.15"/><circle cx="392" cy="56" r="1" fill="#e2e8f0" opacity="0.37"/><circle cx="1199" cy="326" r="1" fill="#e2e8f0" opacity="0.32"/><circle cx="1145" cy="244" r="1" fill="#e2e8f0" opacity="0.36"/><circle cx="606" cy="350" r="1" fill="#e2e8f0" opacity="0.16"/><circle cx="1126" cy="670" r="2" fill="#e2e8f0" opacity="0.34"/><circle cx="419" cy="339" r="1" fill="#e2e8f0" opacity="0.36"/><circle cx="200" cy="465" r="1" fill="#e2e8f0" opacity="0.31"/><circle cx="1169" cy="310" r="2" fill="#e2e8f0" opacity="0.26"/><circle cx="673" cy="220" r="1" fill="#e2e8f0" opacity="0.33"/><circle cx="167" cy="437" r="1" fill="#e2e8f0" opacity="0.34"/><circle cx="766" cy="429" r="1" fill="#e2e8f0" opacity="0.17"/><circle cx="471" cy="689" r="1" fill="#e2e8f0" opacity="0.29"/><circle cx="616" cy="313" r="2" fill="#e2e8f0" opacity="0.16"/><circle cx="111" cy="373" r="1" fill="#e2e8f0" opacity="0.16"/><circle cx="557" cy="252" r="2" fill="#e2e8f0" opacity="0.23"/><circle cx="701" cy="577" r="1" fill="#e2e8f0" opacity="0.19"/><circle cx="1104" cy="539" r="1" fill="#e2e8f0" opacity="0.37"/><circle cx="236" cy="107" r="1" fill="#e2e8f0" opacity="0.19"/><circle cx="663" cy="368" r="1" fill="#e2e8f0" opacity="0.29"/><rect x="80" y="95" width="202" height="122" rx="18" fill="#fff" opacity=".045" stroke="#22d3ee" stroke-width="1.4"/><rect x="295" y="490" width="211" height="108" rx="18" fill="#fff" opacity=".045" stroke="#22d3ee" stroke-width="1.4"/><rect x="510" y="95" width="237" height="94" rx="18" fill="#fff" opacity=".045" stroke="#22d3ee" stroke-width="1.4"/><rect x="725" y="490" width="211" height="109" rx="18" fill="#fff" opacity=".045" stroke="#22d3ee" stroke-width="1.4"/><rect x="940" y="95" width="182" height="120" rx="18" fill="#fff" opacity=".045" stroke="#22d3ee" stroke-width="1.4"/><rect x="1155" y="490" width="204" height="75" rx="18" fill="#fff" opacity=".045" stroke="#22d3ee" stroke-width="1.4"/><g><g stroke="#a78bfa" stroke-width="6" opacity=".78"><line x1="500" y1="250" x2="630" y2="320"/><line x1="630" y1="320" x2="780" y2="250"/><line x1="630" y1="320" x2="650" y2="455"/><line x1="500" y1="250" x2="650" y2="455"/><line x1="780" y1="250" x2="650" y2="455"/></g><g fill="#22d3ee"><circle cx="500" cy="250" r="38"/><circle cx="780" cy="250" r="38"/><circle cx="630" cy="320" r="48"/><circle cx="650" cy="455" r="38"/></g></g><path d="M80 610 C310 530 460 660 690 585 C870 526 1030 558 1200 485" fill="none" stroke="#a78bfa" stroke-width="4" opacity=".28"/><rect x="64" y="56" width="1152" height="608" rx="36" fill="none" stroke="#e2e8f0" stroke-width="2" opacity=".12"/></svg>