<svg xmlns="http://www.w3.org/2000/svg" viewBox="0 0 1280 720" width="1280" height="720" role="img" aria-label="Next.js 16.2 — 개발 서버 400% 빨라지고 렌더링 50% 개선">
<defs><linearGradient id="bg" x1="0" y1="0" x2="1" y2="1"><stop offset="0" stop-color="#052e16"/><stop offset="1" stop-color="#064e3b"/></linearGradient><radialGradient id="glow" cx="50%" cy="44%" r="55%"><stop offset="0" stop-color="#34d399" stop-opacity=".30"/><stop offset="1" stop-color="#34d399" stop-opacity="0"/></radialGradient><pattern id="grid" width="48" height="48" patternUnits="userSpaceOnUse"><path d="M48 0 L0 0 0 48" fill="none" stroke="#94a3b8" stroke-width=".7" opacity=".15"/></pattern></defs>
<rect width="1280" height="720" fill="url(#bg)"/><rect width="1280" height="720" fill="url(#grid)"/><rect width="1280" height="720" fill="url(#glow)"/><circle cx="531" cy="38" r="1" fill="#e2e8f0" opacity="0.31"/><circle cx="1021" cy="83" r="1" fill="#e2e8f0" opacity="0.40"/><circle cx="235" cy="312" r="2" fill="#e2e8f0" opacity="0.13"/><circle cx="961" cy="137" r="2" fill="#e2e8f0" opacity="0.26"/><circle cx="216" cy="62" r="1" fill="#e2e8f0" opacity="0.12"/><circle cx="527" cy="208" r="2" fill="#e2e8f0" opacity="0.39"/><circle cx="451" cy="587" r="2" fill="#e2e8f0" opacity="0.24"/><circle cx="1066" cy="646" r="1" fill="#e2e8f0" opacity="0.37"/><circle cx="441" cy="472" r="2" fill="#e2e8f0" opacity="0.15"/><circle cx="250" cy="476" r="1" fill="#e2e8f0" opacity="0.25"/><circle cx="824" cy="614" r="1" fill="#e2e8f0" opacity="0.22"/><circle cx="598" cy="273" r="2" fill="#e2e8f0" opacity="0.41"/><circle cx="125" cy="127" r="1" fill="#e2e8f0" opacity="0.40"/><circle cx="1176" cy="150" r="1" fill="#e2e8f0" opacity="0.18"/><circle cx="540" cy="53" r="1" fill="#e2e8f0" opacity="0.25"/><circle cx="285" cy="83" r="1" fill="#e2e8f0" opacity="0.34"/><circle cx="673" cy="612" r="1" fill="#e2e8f0" opacity="0.17"/><circle cx="812" cy="155" r="1" fill="#e2e8f0" opacity="0.33"/><circle cx="903" cy="334" r="1" fill="#e2e8f0" opacity="0.17"/><circle cx="383" cy="92" r="2" fill="#e2e8f0" opacity="0.36"/><circle cx="1248" cy="218" r="2" fill="#e2e8f0" opacity="0.13"/><circle cx="121" cy="410" r="1" fill="#e2e8f0" opacity="0.31"/><circle cx="741" cy="430" r="2" fill="#e2e8f0" opacity="0.31"/><circle cx="42" cy="160" r="2" fill="#e2e8f0" opacity="0.41"/><circle cx="701" cy="450" r="1" fill="#e2e8f0" opacity="0.27"/><circle cx="962" cy="664" r="2" fill="#e2e8f0" opacity="0.38"/><circle cx="1187" cy="482" r="1" fill="#e2e8f0" opacity="0.37"/><circle cx="143" cy="370" r="1" fill="#e2e8f0" opacity="0.27"/><circle cx="399" cy="465" r="1" fill="#e2e8f0" opacity="0.13"/><circle cx="1118" cy="181" r="1" fill="#e2e8f0" opacity="0.36"/><circle cx="1128" cy="574" r="1" fill="#e2e8f0" opacity="0.32"/><circle cx="710" cy="50" r="2" fill="#e2e8f0" opacity="0.16"/><circle cx="1114" cy="265" r="2" fill="#e2e8f0" opacity="0.21"/><circle cx="656" cy="227" r="1" fill="#e2e8f0" opacity="0.31"/><circle cx="443" cy="526" r="1" fill="#e2e8f0" opacity="0.37"/><circle cx="801" cy="411" r="2" fill="#e2e8f0" opacity="0.31"/><circle cx="487" cy="536" r="2" fill="#e2e8f0" opacity="0.20"/><circle cx="773" cy="561" r="1" fill="#e2e8f0" opacity="0.39"/><circle cx="162" cy="95" r="1" fill="#e2e8f0" opacity="0.17"/><circle cx="1127" cy="385" r="2" fill="#e2e8f0" opacity="0.42"/><circle cx="247" cy="480" r="1" fill="#e2e8f0" opacity="0.28"/><circle cx="826" cy="630" r="1" fill="#e2e8f0" opacity="0.22"/><circle cx="1114" cy="356" r="2" fill="#e2e8f0" opacity="0.33"/><circle cx="721" cy="182" r="2" fill="#e2e8f0" opacity="0.32"/><circle cx="193" cy="400" r="1" fill="#e2e8f0" opacity="0.39"/><rect x="80" y="95" width="171" height="112" rx="18" fill="#fff" opacity=".045" stroke="#34d399" stroke-width="1.4"/><rect x="295" y="490" width="171" height="72" rx="18" fill="#fff" opacity=".045" stroke="#34d399" stroke-width="1.4"/><rect x="510" y="95" width="182" height="130" rx="18" fill="#fff" opacity=".045" stroke="#34d399" stroke-width="1.4"/><rect x="725" y="490" width="209" height="93" rx="18" fill="#fff" opacity=".045" stroke="#34d399" stroke-width="1.4"/><rect x="940" y="95" width="172" height="75" rx="18" fill="#fff" opacity=".045" stroke="#34d399" stroke-width="1.4"/><rect x="1155" y="490" width="193" height="127" rx="18" fill="#fff" opacity=".045" stroke="#34d399" stroke-width="1.4"/><g><rect x="370" y="180" width="540" height="320" rx="26" fill="#0f172a" stroke="#34d399" stroke-width="4"/><path d="M485 300 l-70 55 l70 55 M795 300 l70 55 l-70 55 M610 430 l65 -175" stroke="#fbbf24" stroke-width="12" fill="none" stroke-linecap="round" stroke-linejoin="round"/></g><path d="M80 610 C310 530 460 660 690 585 C870 526 1030 558 1200 485" fill="none" stroke="#fbbf24" stroke-width="4" opacity=".28"/><rect x="64" y="56" width="1152" height="608" rx="36" fill="none" stroke="#e2e8f0" stroke-width="2" opacity=".12"/></svg>