<svg xmlns="http://www.w3.org/2000/svg" viewBox="0 0 1280 720" width="1280" height="720" role="img" aria-label="집에서 K8s 클러스터 6노드 구축한 삽질기 — kubeadm, Cilium, ArgoCD까지">
<defs><linearGradient id="bg" x1="0" y1="0" x2="1" y2="1"><stop offset="0" stop-color="#022c22"/><stop offset="1" stop-color="#064e3b"/></linearGradient><radialGradient id="glow" cx="50%" cy="44%" r="55%"><stop offset="0" stop-color="#10b981" stop-opacity=".30"/><stop offset="1" stop-color="#10b981" stop-opacity="0"/></radialGradient><pattern id="grid" width="48" height="48" patternUnits="userSpaceOnUse"><path d="M48 0 L0 0 0 48" fill="none" stroke="#94a3b8" stroke-width=".7" opacity=".15"/></pattern></defs>
<rect width="1280" height="720" fill="url(#bg)"/><rect width="1280" height="720" fill="url(#grid)"/><rect width="1280" height="720" fill="url(#glow)"/><circle cx="660" cy="391" r="2" fill="#e2e8f0" opacity="0.34"/><circle cx="90" cy="489" r="1" fill="#e2e8f0" opacity="0.40"/><circle cx="424" cy="247" r="1" fill="#e2e8f0" opacity="0.33"/><circle cx="1202" cy="203" r="1" fill="#e2e8f0" opacity="0.14"/><circle cx="591" cy="668" r="1" fill="#e2e8f0" opacity="0.32"/><circle cx="692" cy="655" r="1" fill="#e2e8f0" opacity="0.14"/><circle cx="1044" cy="589" r="1" fill="#e2e8f0" opacity="0.17"/><circle cx="1150" cy="490" r="1" fill="#e2e8f0" opacity="0.33"/><circle cx="812" cy="436" r="1" fill="#e2e8f0" opacity="0.20"/><circle cx="157" cy="425" r="2" fill="#e2e8f0" opacity="0.16"/><circle cx="1127" cy="587" r="1" fill="#e2e8f0" opacity="0.20"/><circle cx="1096" cy="201" r="1" fill="#e2e8f0" opacity="0.40"/><circle cx="1022" cy="452" r="2" fill="#e2e8f0" opacity="0.27"/><circle cx="346" cy="309" r="2" fill="#e2e8f0" opacity="0.20"/><circle cx="557" cy="228" r="1" fill="#e2e8f0" opacity="0.16"/><circle cx="1123" cy="387" r="1" fill="#e2e8f0" opacity="0.23"/><circle cx="327" cy="227" r="2" fill="#e2e8f0" opacity="0.14"/><circle cx="104" cy="122" r="2" fill="#e2e8f0" opacity="0.30"/><circle cx="1199" cy="114" r="2" fill="#e2e8f0" opacity="0.32"/><circle cx="208" cy="555" r="1" fill="#e2e8f0" opacity="0.21"/><circle cx="766" cy="345" r="2" fill="#e2e8f0" opacity="0.21"/><circle cx="396" cy="99" r="1" fill="#e2e8f0" opacity="0.15"/><circle cx="561" cy="358" r="2" fill="#e2e8f0" opacity="0.37"/><circle cx="286" cy="634" r="1" fill="#e2e8f0" opacity="0.12"/><circle cx="994" cy="90" r="2" fill="#e2e8f0" opacity="0.36"/><circle cx="597" cy="231" r="1" fill="#e2e8f0" opacity="0.29"/><circle cx="644" cy="137" r="2" fill="#e2e8f0" opacity="0.31"/><circle cx="257" cy="554" r="2" fill="#e2e8f0" opacity="0.15"/><circle cx="1011" cy="114" r="1" fill="#e2e8f0" opacity="0.42"/><circle cx="694" cy="366" r="1" fill="#e2e8f0" opacity="0.25"/><circle cx="1212" cy="515" r="2" fill="#e2e8f0" opacity="0.27"/><circle cx="632" cy="684" r="1" fill="#e2e8f0" opacity="0.39"/><circle cx="993" cy="461" r="2" fill="#e2e8f0" opacity="0.19"/><circle cx="508" cy="264" r="2" fill="#e2e8f0" opacity="0.28"/><circle cx="44" cy="537" r="1" fill="#e2e8f0" opacity="0.38"/><circle cx="469" cy="166" r="1" fill="#e2e8f0" opacity="0.28"/><circle cx="620" cy="62" r="1" fill="#e2e8f0" opacity="0.38"/><circle cx="874" cy="116" r="2" fill="#e2e8f0" opacity="0.39"/><circle cx="313" cy="568" r="1" fill="#e2e8f0" opacity="0.19"/><circle cx="415" cy="291" r="2" fill="#e2e8f0" opacity="0.27"/><circle cx="875" cy="621" r="1" fill="#e2e8f0" opacity="0.41"/><circle cx="556" cy="620" r="1" fill="#e2e8f0" opacity="0.30"/><circle cx="1210" cy="53" r="1" fill="#e2e8f0" opacity="0.17"/><circle cx="561" cy="529" r="1" fill="#e2e8f0" opacity="0.41"/><circle cx="1168" cy="484" r="2" fill="#e2e8f0" opacity="0.13"/><rect x="80" y="95" width="202" height="119" rx="18" fill="#fff" opacity=".045" stroke="#10b981" stroke-width="1.4"/><rect x="295" y="490" width="206" height="126" rx="18" fill="#fff" opacity=".045" stroke="#10b981" stroke-width="1.4"/><rect x="510" y="95" width="212" height="100" rx="18" fill="#fff" opacity=".045" stroke="#10b981" stroke-width="1.4"/><rect x="725" y="490" width="155" height="81" rx="18" fill="#fff" opacity=".045" stroke="#10b981" stroke-width="1.4"/><rect x="940" y="95" width="171" height="127" rx="18" fill="#fff" opacity=".045" stroke="#10b981" stroke-width="1.4"/><rect x="1155" y="490" width="159" height="82" rx="18" fill="#fff" opacity=".045" stroke="#10b981" stroke-width="1.4"/><g><polygon points="739.6,372.5 640.0,430.0 540.4,372.5 540.4,257.5 640.0,200.0 739.6,257.5" fill="#0f172a" stroke="#10b981" stroke-width="6"/><circle cx="640" cy="315" r="52" fill="#10b981" opacity=".22" stroke="#a78bfa" stroke-width="5"/></g><path d="M80 610 C310 530 460 660 690 585 C870 526 1030 558 1200 485" fill="none" stroke="#a78bfa" stroke-width="4" opacity=".28"/><rect x="64" y="56" width="1152" height="608" rx="36" fill="none" stroke="#e2e8f0" stroke-width="2" opacity=".12"/></svg>