<svg xmlns="http://www.w3.org/2000/svg" viewBox="0 0 1280 720" width="1280" height="720" role="img" aria-label="OpenAI의 Astral 인수 — Python 생태계 통합 본격화">
<defs><linearGradient id="bg" x1="0" y1="0" x2="1" y2="1"><stop offset="0" stop-color="#020617"/><stop offset="1" stop-color="#1e293b"/></linearGradient><radialGradient id="glow" cx="50%" cy="44%" r="55%"><stop offset="0" stop-color="#22d3ee" stop-opacity=".30"/><stop offset="1" stop-color="#22d3ee" stop-opacity="0"/></radialGradient><pattern id="grid" width="48" height="48" patternUnits="userSpaceOnUse"><path d="M48 0 L0 0 0 48" fill="none" stroke="#94a3b8" stroke-width=".7" opacity=".15"/></pattern></defs>
<rect width="1280" height="720" fill="url(#bg)"/><rect width="1280" height="720" fill="url(#grid)"/><rect width="1280" height="720" fill="url(#glow)"/><circle cx="792" cy="419" r="1" fill="#e2e8f0" opacity="0.30"/><circle cx="143" cy="678" r="1" fill="#e2e8f0" opacity="0.31"/><circle cx="1054" cy="620" r="1" fill="#e2e8f0" opacity="0.22"/><circle cx="603" cy="555" r="1" fill="#e2e8f0" opacity="0.14"/><circle cx="1256" cy="461" r="2" fill="#e2e8f0" opacity="0.15"/><circle cx="306" cy="528" r="2" fill="#e2e8f0" opacity="0.36"/><circle cx="193" cy="116" r="2" fill="#e2e8f0" opacity="0.18"/><circle cx="502" cy="212" r="1" fill="#e2e8f0" opacity="0.20"/><circle cx="144" cy="356" r="2" fill="#e2e8f0" opacity="0.27"/><circle cx="423" cy="337" r="2" fill="#e2e8f0" opacity="0.27"/><circle cx="126" cy="601" r="2" fill="#e2e8f0" opacity="0.20"/><circle cx="688" cy="37" r="2" fill="#e2e8f0" opacity="0.21"/><circle cx="483" cy="92" r="1" fill="#e2e8f0" opacity="0.36"/><circle cx="145" cy="250" r="1" fill="#e2e8f0" opacity="0.26"/><circle cx="1164" cy="541" r="2" fill="#e2e8f0" opacity="0.18"/><circle cx="405" cy="415" r="1" fill="#e2e8f0" opacity="0.20"/><circle cx="134" cy="104" r="2" fill="#e2e8f0" opacity="0.18"/><circle cx="1166" cy="534" r="1" fill="#e2e8f0" opacity="0.34"/><circle cx="562" cy="151" r="1" fill="#e2e8f0" opacity="0.20"/><circle cx="799" cy="176" r="1" fill="#e2e8f0" opacity="0.18"/><circle cx="315" cy="383" r="2" fill="#e2e8f0" opacity="0.16"/><circle cx="957" cy="467" r="1" fill="#e2e8f0" opacity="0.27"/><circle cx="1137" cy="171" r="2" fill="#e2e8f0" opacity="0.26"/><circle cx="958" cy="380" r="2" fill="#e2e8f0" opacity="0.20"/><circle cx="1243" cy="42" r="2" fill="#e2e8f0" opacity="0.36"/><circle cx="58" cy="345" r="1" fill="#e2e8f0" opacity="0.12"/><circle cx="668" cy="656" r="1" fill="#e2e8f0" opacity="0.31"/><circle cx="545" cy="453" r="1" fill="#e2e8f0" opacity="0.27"/><circle cx="730" cy="596" r="1" fill="#e2e8f0" opacity="0.38"/><circle cx="1223" cy="227" r="1" fill="#e2e8f0" opacity="0.19"/><circle cx="1091" cy="420" r="1" fill="#e2e8f0" opacity="0.13"/><circle cx="136" cy="523" r="1" fill="#e2e8f0" opacity="0.29"/><circle cx="812" cy="648" r="2" fill="#e2e8f0" opacity="0.36"/><circle cx="40" cy="177" r="2" fill="#e2e8f0" opacity="0.33"/><circle cx="420" cy="206" r="2" fill="#e2e8f0" opacity="0.15"/><circle cx="205" cy="546" r="1" fill="#e2e8f0" opacity="0.29"/><circle cx="1154" cy="339" r="1" fill="#e2e8f0" opacity="0.18"/><circle cx="248" cy="68" r="2" fill="#e2e8f0" opacity="0.29"/><circle cx="904" cy="603" r="2" fill="#e2e8f0" opacity="0.25"/><circle cx="1069" cy="600" r="1" fill="#e2e8f0" opacity="0.27"/><circle cx="415" cy="332" r="2" fill="#e2e8f0" opacity="0.38"/><circle cx="422" cy="248" r="1" fill="#e2e8f0" opacity="0.24"/><circle cx="102" cy="231" r="2" fill="#e2e8f0" opacity="0.28"/><circle cx="230" cy="59" r="2" fill="#e2e8f0" opacity="0.29"/><circle cx="112" cy="121" r="2" fill="#e2e8f0" opacity="0.17"/><rect x="80" y="95" width="211" height="125" rx="18" fill="#fff" opacity=".045" stroke="#22d3ee" stroke-width="1.4"/><rect x="295" y="490" width="216" height="128" rx="18" fill="#fff" opacity=".045" stroke="#22d3ee" stroke-width="1.4"/><rect x="510" y="95" width="212" height="77" rx="18" fill="#fff" opacity=".045" stroke="#22d3ee" stroke-width="1.4"/><rect x="725" y="490" width="239" height="110" rx="18" fill="#fff" opacity=".045" stroke="#22d3ee" stroke-width="1.4"/><rect x="940" y="95" width="208" height="125" rx="18" fill="#fff" opacity=".045" stroke="#22d3ee" stroke-width="1.4"/><rect x="1155" y="490" width="234" height="114" rx="18" fill="#fff" opacity=".045" stroke="#22d3ee" stroke-width="1.4"/><g><g stroke="#a78bfa" stroke-width="6" opacity=".78"><line x1="500" y1="250" x2="630" y2="320"/><line x1="630" y1="320" x2="780" y2="250"/><line x1="630" y1="320" x2="650" y2="455"/><line x1="500" y1="250" x2="650" y2="455"/><line x1="780" y1="250" x2="650" y2="455"/></g><g fill="#22d3ee"><circle cx="500" cy="250" r="38"/><circle cx="780" cy="250" r="38"/><circle cx="630" cy="320" r="48"/><circle cx="650" cy="455" r="38"/></g></g><path d="M80 610 C310 530 460 660 690 585 C870 526 1030 558 1200 485" fill="none" stroke="#a78bfa" stroke-width="4" opacity=".28"/><rect x="64" y="56" width="1152" height="608" rx="36" fill="none" stroke="#e2e8f0" stroke-width="2" opacity=".12"/></svg>