<svg xmlns="http://www.w3.org/2000/svg" viewBox="0 0 1280 720" width="1280" height="720" role="img" aria-label="GitHub Issues가 즉시 열리는 것처럼 느껴지게 만든 방법 — 캐시, 프리패치, 서비스 워커">
  <defs>
    <linearGradient id="bg" x1="0" y1="0" x2="1" y2="1"><stop offset="0" stop-color="#172554"/><stop offset="1" stop-color="#365314"/></linearGradient>
    <radialGradient id="glow" cx="50%" cy="45%" r="55%"><stop offset="0" stop-color="#a3e635" stop-opacity=".30"/><stop offset="1" stop-color="#a3e635" stop-opacity="0"/></radialGradient>
    <pattern id="grid" width="48" height="48" patternUnits="userSpaceOnUse"><path d="M 48 0 L 0 0 0 48" fill="none" stroke="#94a3b8" stroke-width=".7" opacity=".16"/></pattern>
  </defs>
  <rect width="1280" height="720" fill="url(#bg)"/>
  <rect width="1280" height="720" fill="url(#grid)"/>
  <rect width="1280" height="720" fill="url(#glow)"/>
  <circle cx="1121" cy="231" r="2" fill="#e2e8f0" opacity="0.30"/><circle cx="255" cy="462" r="2" fill="#e2e8f0" opacity="0.31"/><circle cx="1232" cy="70" r="2" fill="#e2e8f0" opacity="0.35"/><circle cx="1176" cy="327" r="1" fill="#e2e8f0" opacity="0.18"/><circle cx="970" cy="608" r="2" fill="#e2e8f0" opacity="0.24"/><circle cx="1216" cy="553" r="1" fill="#e2e8f0" opacity="0.25"/><circle cx="874" cy="111" r="1" fill="#e2e8f0" opacity="0.37"/><circle cx="841" cy="144" r="1" fill="#e2e8f0" opacity="0.27"/><circle cx="931" cy="274" r="2" fill="#e2e8f0" opacity="0.40"/><circle cx="1069" cy="632" r="1" fill="#e2e8f0" opacity="0.41"/><circle cx="1120" cy="421" r="1" fill="#e2e8f0" opacity="0.20"/><circle cx="577" cy="283" r="2" fill="#e2e8f0" opacity="0.20"/><circle cx="756" cy="276" r="1" fill="#e2e8f0" opacity="0.23"/><circle cx="79" cy="610" r="1" fill="#e2e8f0" opacity="0.31"/><circle cx="547" cy="417" r="1" fill="#e2e8f0" opacity="0.13"/><circle cx="66" cy="668" r="1" fill="#e2e8f0" opacity="0.16"/><circle cx="318" cy="149" r="1" fill="#e2e8f0" opacity="0.27"/><circle cx="1208" cy="422" r="2" fill="#e2e8f0" opacity="0.26"/><circle cx="970" cy="481" r="1" fill="#e2e8f0" opacity="0.40"/><circle cx="917" cy="669" r="1" fill="#e2e8f0" opacity="0.44"/><circle cx="425" cy="555" r="2" fill="#e2e8f0" opacity="0.28"/><circle cx="1144" cy="149" r="1" fill="#e2e8f0" opacity="0.28"/><circle cx="770" cy="390" r="2" fill="#e2e8f0" opacity="0.38"/><circle cx="923" cy="479" r="1" fill="#e2e8f0" opacity="0.22"/><circle cx="799" cy="482" r="1" fill="#e2e8f0" opacity="0.36"/><circle cx="1076" cy="283" r="1" fill="#e2e8f0" opacity="0.20"/><circle cx="622" cy="623" r="1" fill="#e2e8f0" opacity="0.29"/><circle cx="841" cy="351" r="1" fill="#e2e8f0" opacity="0.39"/><circle cx="677" cy="450" r="1" fill="#e2e8f0" opacity="0.35"/><circle cx="856" cy="641" r="1" fill="#e2e8f0" opacity="0.24"/><circle cx="318" cy="661" r="1" fill="#e2e8f0" opacity="0.25"/><circle cx="917" cy="552" r="1" fill="#e2e8f0" opacity="0.25"/><circle cx="95" cy="171" r="2" fill="#e2e8f0" opacity="0.38"/><circle cx="214" cy="670" r="2" fill="#e2e8f0" opacity="0.23"/><circle cx="910" cy="368" r="1" fill="#e2e8f0" opacity="0.40"/><circle cx="945" cy="148" r="1" fill="#e2e8f0" opacity="0.13"/><circle cx="487" cy="162" r="1" fill="#e2e8f0" opacity="0.20"/><circle cx="471" cy="483" r="2" fill="#e2e8f0" opacity="0.28"/><circle cx="813" cy="306" r="1" fill="#e2e8f0" opacity="0.38"/><circle cx="784" cy="143" r="1" fill="#e2e8f0" opacity="0.20"/><circle cx="74" cy="372" r="1" fill="#e2e8f0" opacity="0.36"/><circle cx="873" cy="442" r="2" fill="#e2e8f0" opacity="0.18"/>
  <rect x="80" y="95" width="216" height="86" rx="18" fill="#ffffff" opacity=".045" stroke="#a3e635" stroke-width="1.5"/><rect x="310" y="485" width="199" height="124" rx="18" fill="#ffffff" opacity=".045" stroke="#a3e635" stroke-width="1.5"/><rect x="540" y="95" width="176" height="83" rx="18" fill="#ffffff" opacity=".045" stroke="#a3e635" stroke-width="1.5"/><rect x="770" y="485" width="172" height="106" rx="18" fill="#ffffff" opacity=".045" stroke="#a3e635" stroke-width="1.5"/><rect x="1000" y="95" width="224" height="89" rx="18" fill="#ffffff" opacity=".045" stroke="#a3e635" stroke-width="1.5"/>
  <g opacity=".95"><path d="M390 405 C440 280 550 210 690 230 C790 245 855 315 890 405" fill="none" stroke="#a3e635" stroke-width="12" stroke-linecap="round"/><path d="M640 345 L780 255" stroke="#38bdf8" stroke-width="10" stroke-linecap="round"/><circle cx="640" cy="345" r="28" fill="#38bdf8"/><g stroke="#e2e8f0" stroke-width="5" opacity=".45"><line x1="430" y1="405" x2="850" y2="405"/></g></g>
  <path d="M80 610 C310 530 460 660 690 585 C870 526 1030 558 1200 485" fill="none" stroke="#38bdf8" stroke-width="4" opacity=".28"/>
  <rect x="64" y="56" width="1152" height="608" rx="36" fill="none" stroke="#e2e8f0" stroke-width="2" opacity=".12"/>
</svg>