<svg xmlns="http://www.w3.org/2000/svg" viewBox="0 0 1280 720" width="1280" height="720" role="img" aria-label="엣지 스택 완벽 가이드: Hono + Turso + Drizzle로 글로벌 저지연 앱 만들기">
<defs><linearGradient id="bg" x1="0" y1="0" x2="1" y2="1"><stop offset="0" stop-color="#022c22"/><stop offset="1" stop-color="#064e3b"/></linearGradient><radialGradient id="glow" cx="50%" cy="44%" r="55%"><stop offset="0" stop-color="#10b981" stop-opacity=".30"/><stop offset="1" stop-color="#10b981" stop-opacity="0"/></radialGradient><pattern id="grid" width="48" height="48" patternUnits="userSpaceOnUse"><path d="M48 0 L0 0 0 48" fill="none" stroke="#94a3b8" stroke-width=".7" opacity=".15"/></pattern></defs>
<rect width="1280" height="720" fill="url(#bg)"/><rect width="1280" height="720" fill="url(#grid)"/><rect width="1280" height="720" fill="url(#glow)"/><circle cx="468" cy="456" r="1" fill="#e2e8f0" opacity="0.36"/><circle cx="1186" cy="653" r="1" fill="#e2e8f0" opacity="0.13"/><circle cx="1077" cy="287" r="1" fill="#e2e8f0" opacity="0.12"/><circle cx="203" cy="460" r="1" fill="#e2e8f0" opacity="0.24"/><circle cx="512" cy="589" r="2" fill="#e2e8f0" opacity="0.15"/><circle cx="288" cy="594" r="2" fill="#e2e8f0" opacity="0.36"/><circle cx="750" cy="254" r="2" fill="#e2e8f0" opacity="0.34"/><circle cx="627" cy="406" r="1" fill="#e2e8f0" opacity="0.18"/><circle cx="1162" cy="209" r="2" fill="#e2e8f0" opacity="0.29"/><circle cx="552" cy="204" r="1" fill="#e2e8f0" opacity="0.24"/><circle cx="698" cy="443" r="1" fill="#e2e8f0" opacity="0.16"/><circle cx="442" cy="292" r="1" fill="#e2e8f0" opacity="0.26"/><circle cx="1084" cy="173" r="1" fill="#e2e8f0" opacity="0.29"/><circle cx="135" cy="392" r="1" fill="#e2e8f0" opacity="0.23"/><circle cx="648" cy="55" r="1" fill="#e2e8f0" opacity="0.20"/><circle cx="953" cy="188" r="1" fill="#e2e8f0" opacity="0.20"/><circle cx="877" cy="474" r="2" fill="#e2e8f0" opacity="0.18"/><circle cx="952" cy="111" r="1" fill="#e2e8f0" opacity="0.22"/><circle cx="351" cy="659" r="1" fill="#e2e8f0" opacity="0.41"/><circle cx="443" cy="521" r="1" fill="#e2e8f0" opacity="0.38"/><circle cx="355" cy="84" r="1" fill="#e2e8f0" opacity="0.41"/><circle cx="1259" cy="367" r="1" fill="#e2e8f0" opacity="0.41"/><circle cx="978" cy="495" r="1" fill="#e2e8f0" opacity="0.35"/><circle cx="791" cy="444" r="1" fill="#e2e8f0" opacity="0.37"/><circle cx="32" cy="675" r="2" fill="#e2e8f0" opacity="0.15"/><circle cx="175" cy="203" r="2" fill="#e2e8f0" opacity="0.27"/><circle cx="935" cy="234" r="1" fill="#e2e8f0" opacity="0.26"/><circle cx="1168" cy="488" r="2" fill="#e2e8f0" opacity="0.41"/><circle cx="801" cy="411" r="1" fill="#e2e8f0" opacity="0.32"/><circle cx="1082" cy="528" r="1" fill="#e2e8f0" opacity="0.36"/><circle cx="641" cy="344" r="2" fill="#e2e8f0" opacity="0.27"/><circle cx="184" cy="468" r="2" fill="#e2e8f0" opacity="0.39"/><circle cx="378" cy="353" r="1" fill="#e2e8f0" opacity="0.13"/><circle cx="412" cy="316" r="2" fill="#e2e8f0" opacity="0.24"/><circle cx="142" cy="591" r="2" fill="#e2e8f0" opacity="0.13"/><circle cx="506" cy="44" r="2" fill="#e2e8f0" opacity="0.18"/><circle cx="806" cy="555" r="1" fill="#e2e8f0" opacity="0.20"/><circle cx="795" cy="286" r="1" fill="#e2e8f0" opacity="0.13"/><circle cx="888" cy="576" r="1" fill="#e2e8f0" opacity="0.16"/><circle cx="999" cy="542" r="1" fill="#e2e8f0" opacity="0.18"/><circle cx="996" cy="240" r="2" fill="#e2e8f0" opacity="0.21"/><circle cx="690" cy="98" r="1" fill="#e2e8f0" opacity="0.16"/><circle cx="1223" cy="579" r="1" fill="#e2e8f0" opacity="0.28"/><circle cx="88" cy="173" r="1" fill="#e2e8f0" opacity="0.41"/><circle cx="1006" cy="583" r="1" fill="#e2e8f0" opacity="0.32"/><rect x="80" y="95" width="233" height="97" rx="18" fill="#fff" opacity=".045" stroke="#10b981" stroke-width="1.4"/><rect x="295" y="490" width="146" height="134" rx="18" fill="#fff" opacity=".045" stroke="#10b981" stroke-width="1.4"/><rect x="510" y="95" width="153" height="109" rx="18" fill="#fff" opacity=".045" stroke="#10b981" stroke-width="1.4"/><rect x="725" y="490" width="203" height="82" rx="18" fill="#fff" opacity=".045" stroke="#10b981" stroke-width="1.4"/><rect x="940" y="95" width="211" height="74" rx="18" fill="#fff" opacity=".045" stroke="#10b981" stroke-width="1.4"/><rect x="1155" y="490" width="176" height="97" rx="18" fill="#fff" opacity=".045" stroke="#10b981" stroke-width="1.4"/><g><rect x="395" y="175" width="490" height="315" rx="30" fill="#0f172a" stroke="#10b981" stroke-width="5"/><circle cx="535" cy="330" r="58" fill="#10b981" opacity=".45"/><circle cx="745" cy="330" r="58" fill="#a78bfa" opacity=".38"/><path d="M590 330 H690" stroke="#e2e8f0" stroke-width="10" stroke-linecap="round"/></g><path d="M80 610 C310 530 460 660 690 585 C870 526 1030 558 1200 485" fill="none" stroke="#a78bfa" stroke-width="4" opacity=".28"/><rect x="64" y="56" width="1152" height="608" rx="36" fill="none" stroke="#e2e8f0" stroke-width="2" opacity=".12"/></svg>