<svg xmlns="http://www.w3.org/2000/svg" viewBox="0 0 1280 720" width="1280" height="720" role="img" aria-label="Mistral Small 4 — 119B 파라미터 MoE, 4개 모델 통합한 오픈소스 AI">
<defs><linearGradient id="bg" x1="0" y1="0" x2="1" y2="1"><stop offset="0" stop-color="#451a03"/><stop offset="1" stop-color="#78350f"/></linearGradient><radialGradient id="glow" cx="50%" cy="44%" r="55%"><stop offset="0" stop-color="#f59e0b" stop-opacity=".30"/><stop offset="1" stop-color="#f59e0b" stop-opacity="0"/></radialGradient><pattern id="grid" width="48" height="48" patternUnits="userSpaceOnUse"><path d="M48 0 L0 0 0 48" fill="none" stroke="#94a3b8" stroke-width=".7" opacity=".15"/></pattern></defs>
<rect width="1280" height="720" fill="url(#bg)"/><rect width="1280" height="720" fill="url(#grid)"/><rect width="1280" height="720" fill="url(#glow)"/><circle cx="1205" cy="53" r="1" fill="#e2e8f0" opacity="0.32"/><circle cx="266" cy="149" r="2" fill="#e2e8f0" opacity="0.34"/><circle cx="844" cy="54" r="1" fill="#e2e8f0" opacity="0.23"/><circle cx="263" cy="484" r="1" fill="#e2e8f0" opacity="0.21"/><circle cx="631" cy="674" r="1" fill="#e2e8f0" opacity="0.36"/><circle cx="792" cy="318" r="1" fill="#e2e8f0" opacity="0.25"/><circle cx="1248" cy="670" r="1" fill="#e2e8f0" opacity="0.13"/><circle cx="674" cy="33" r="1" fill="#e2e8f0" opacity="0.19"/><circle cx="1121" cy="109" r="2" fill="#e2e8f0" opacity="0.32"/><circle cx="57" cy="689" r="1" fill="#e2e8f0" opacity="0.36"/><circle cx="1076" cy="44" r="1" fill="#e2e8f0" opacity="0.32"/><circle cx="157" cy="180" r="1" fill="#e2e8f0" opacity="0.31"/><circle cx="1173" cy="524" r="2" fill="#e2e8f0" opacity="0.20"/><circle cx="675" cy="170" r="1" fill="#e2e8f0" opacity="0.23"/><circle cx="1193" cy="374" r="1" fill="#e2e8f0" opacity="0.15"/><circle cx="876" cy="133" r="2" fill="#e2e8f0" opacity="0.14"/><circle cx="777" cy="598" r="1" fill="#e2e8f0" opacity="0.42"/><circle cx="228" cy="653" r="1" fill="#e2e8f0" opacity="0.39"/><circle cx="393" cy="415" r="2" fill="#e2e8f0" opacity="0.27"/><circle cx="120" cy="86" r="2" fill="#e2e8f0" opacity="0.27"/><circle cx="450" cy="383" r="1" fill="#e2e8f0" opacity="0.41"/><circle cx="124" cy="379" r="2" fill="#e2e8f0" opacity="0.22"/><circle cx="915" cy="661" r="2" fill="#e2e8f0" opacity="0.25"/><circle cx="858" cy="559" r="1" fill="#e2e8f0" opacity="0.15"/><circle cx="414" cy="492" r="2" fill="#e2e8f0" opacity="0.26"/><circle cx="472" cy="283" r="2" fill="#e2e8f0" opacity="0.14"/><circle cx="1010" cy="437" r="2" fill="#e2e8f0" opacity="0.35"/><circle cx="118" cy="462" r="2" fill="#e2e8f0" opacity="0.24"/><circle cx="744" cy="631" r="1" fill="#e2e8f0" opacity="0.33"/><circle cx="983" cy="314" r="1" fill="#e2e8f0" opacity="0.20"/><circle cx="298" cy="288" r="1" fill="#e2e8f0" opacity="0.30"/><circle cx="786" cy="93" r="1" fill="#e2e8f0" opacity="0.39"/><circle cx="1052" cy="109" r="2" fill="#e2e8f0" opacity="0.36"/><circle cx="902" cy="446" r="1" fill="#e2e8f0" opacity="0.24"/><circle cx="89" cy="501" r="2" fill="#e2e8f0" opacity="0.16"/><circle cx="103" cy="498" r="1" fill="#e2e8f0" opacity="0.41"/><circle cx="448" cy="257" r="2" fill="#e2e8f0" opacity="0.32"/><circle cx="1198" cy="525" r="1" fill="#e2e8f0" opacity="0.33"/><circle cx="380" cy="69" r="2" fill="#e2e8f0" opacity="0.41"/><circle cx="295" cy="528" r="1" fill="#e2e8f0" opacity="0.14"/><circle cx="858" cy="449" r="1" fill="#e2e8f0" opacity="0.31"/><circle cx="1161" cy="642" r="1" fill="#e2e8f0" opacity="0.29"/><circle cx="692" cy="289" r="1" fill="#e2e8f0" opacity="0.18"/><circle cx="346" cy="370" r="1" fill="#e2e8f0" opacity="0.21"/><circle cx="450" cy="569" r="2" fill="#e2e8f0" opacity="0.16"/><rect x="80" y="95" width="190" height="74" rx="18" fill="#fff" opacity=".045" stroke="#f59e0b" stroke-width="1.4"/><rect x="295" y="490" width="200" height="90" rx="18" fill="#fff" opacity=".045" stroke="#f59e0b" stroke-width="1.4"/><rect x="510" y="95" width="156" height="84" rx="18" fill="#fff" opacity=".045" stroke="#f59e0b" stroke-width="1.4"/><rect x="725" y="490" width="210" height="110" rx="18" fill="#fff" opacity=".045" stroke="#f59e0b" stroke-width="1.4"/><rect x="940" y="95" width="186" height="91" rx="18" fill="#fff" opacity=".045" stroke="#f59e0b" stroke-width="1.4"/><rect x="1155" y="490" width="157" height="82" rx="18" fill="#fff" opacity=".045" stroke="#f59e0b" stroke-width="1.4"/><g><g stroke="#34d399" stroke-width="6" opacity=".78"><line x1="500" y1="250" x2="630" y2="320"/><line x1="630" y1="320" x2="780" y2="250"/><line x1="630" y1="320" x2="650" y2="455"/><line x1="500" y1="250" x2="650" y2="455"/><line x1="780" y1="250" x2="650" y2="455"/></g><g fill="#f59e0b"><circle cx="500" cy="250" r="38"/><circle cx="780" cy="250" r="38"/><circle cx="630" cy="320" r="48"/><circle cx="650" cy="455" r="38"/></g></g><path d="M80 610 C310 530 460 660 690 585 C870 526 1030 558 1200 485" fill="none" stroke="#34d399" stroke-width="4" opacity=".28"/><rect x="64" y="56" width="1152" height="608" rx="36" fill="none" stroke="#e2e8f0" stroke-width="2" opacity=".12"/></svg>