<svg xmlns="http://www.w3.org/2000/svg" viewBox="0 0 1280 720" width="1280" height="720" role="img" aria-label="Kubernetes Service ExternalIPs 폐기 — 오래된 편의 기능이 보안 리스크가 된 이유">
  <defs>
    <linearGradient id="bg" x1="0" y1="0" x2="1" y2="1"><stop offset="0" stop-color="#082f49"/><stop offset="1" stop-color="#0f172a"/></linearGradient>
    <radialGradient id="glow" cx="50%" cy="45%" r="55%"><stop offset="0" stop-color="#38bdf8" stop-opacity=".30"/><stop offset="1" stop-color="#38bdf8" stop-opacity="0"/></radialGradient>
    <pattern id="grid" width="48" height="48" patternUnits="userSpaceOnUse"><path d="M 48 0 L 0 0 0 48" fill="none" stroke="#94a3b8" stroke-width=".7" opacity=".16"/></pattern>
  </defs>
  <rect width="1280" height="720" fill="url(#bg)"/>
  <rect width="1280" height="720" fill="url(#grid)"/>
  <rect width="1280" height="720" fill="url(#glow)"/>
  <circle cx="299" cy="353" r="2" fill="#e2e8f0" opacity="0.33"/><circle cx="234" cy="628" r="2" fill="#e2e8f0" opacity="0.25"/><circle cx="904" cy="623" r="1" fill="#e2e8f0" opacity="0.19"/><circle cx="341" cy="47" r="2" fill="#e2e8f0" opacity="0.35"/><circle cx="384" cy="167" r="1" fill="#e2e8f0" opacity="0.35"/><circle cx="718" cy="420" r="2" fill="#e2e8f0" opacity="0.45"/><circle cx="192" cy="542" r="2" fill="#e2e8f0" opacity="0.36"/><circle cx="406" cy="638" r="1" fill="#e2e8f0" opacity="0.36"/><circle cx="1112" cy="303" r="1" fill="#e2e8f0" opacity="0.42"/><circle cx="336" cy="477" r="1" fill="#e2e8f0" opacity="0.18"/><circle cx="373" cy="401" r="2" fill="#e2e8f0" opacity="0.35"/><circle cx="161" cy="447" r="2" fill="#e2e8f0" opacity="0.34"/><circle cx="590" cy="366" r="2" fill="#e2e8f0" opacity="0.24"/><circle cx="436" cy="452" r="1" fill="#e2e8f0" opacity="0.31"/><circle cx="1088" cy="545" r="1" fill="#e2e8f0" opacity="0.31"/><circle cx="192" cy="272" r="2" fill="#e2e8f0" opacity="0.24"/><circle cx="480" cy="401" r="2" fill="#e2e8f0" opacity="0.21"/><circle cx="1188" cy="103" r="1" fill="#e2e8f0" opacity="0.37"/><circle cx="248" cy="641" r="1" fill="#e2e8f0" opacity="0.24"/><circle cx="870" cy="669" r="2" fill="#e2e8f0" opacity="0.14"/><circle cx="383" cy="121" r="1" fill="#e2e8f0" opacity="0.40"/><circle cx="716" cy="377" r="1" fill="#e2e8f0" opacity="0.37"/><circle cx="1055" cy="381" r="1" fill="#e2e8f0" opacity="0.32"/><circle cx="413" cy="95" r="1" fill="#e2e8f0" opacity="0.17"/><circle cx="35" cy="363" r="1" fill="#e2e8f0" opacity="0.30"/><circle cx="934" cy="101" r="1" fill="#e2e8f0" opacity="0.17"/><circle cx="1244" cy="84" r="1" fill="#e2e8f0" opacity="0.17"/><circle cx="39" cy="203" r="2" fill="#e2e8f0" opacity="0.13"/><circle cx="185" cy="386" r="2" fill="#e2e8f0" opacity="0.36"/><circle cx="1034" cy="214" r="1" fill="#e2e8f0" opacity="0.33"/><circle cx="1241" cy="578" r="2" fill="#e2e8f0" opacity="0.33"/><circle cx="1183" cy="288" r="1" fill="#e2e8f0" opacity="0.20"/><circle cx="363" cy="245" r="2" fill="#e2e8f0" opacity="0.36"/><circle cx="343" cy="41" r="1" fill="#e2e8f0" opacity="0.24"/><circle cx="569" cy="288" r="1" fill="#e2e8f0" opacity="0.28"/><circle cx="1000" cy="48" r="2" fill="#e2e8f0" opacity="0.15"/><circle cx="1220" cy="608" r="1" fill="#e2e8f0" opacity="0.25"/><circle cx="850" cy="387" r="1" fill="#e2e8f0" opacity="0.20"/><circle cx="366" cy="139" r="1" fill="#e2e8f0" opacity="0.34"/><circle cx="544" cy="401" r="2" fill="#e2e8f0" opacity="0.21"/><circle cx="51" cy="471" r="1" fill="#e2e8f0" opacity="0.27"/><circle cx="33" cy="316" r="1" fill="#e2e8f0" opacity="0.38"/>
  <rect x="80" y="95" width="177" height="113" rx="18" fill="#ffffff" opacity=".045" stroke="#38bdf8" stroke-width="1.5"/><rect x="310" y="485" width="208" height="104" rx="18" fill="#ffffff" opacity=".045" stroke="#38bdf8" stroke-width="1.5"/><rect x="540" y="95" width="174" height="87" rx="18" fill="#ffffff" opacity=".045" stroke="#38bdf8" stroke-width="1.5"/><rect x="770" y="485" width="218" height="70" rx="18" fill="#ffffff" opacity=".045" stroke="#38bdf8" stroke-width="1.5"/><rect x="1000" y="95" width="199" height="98" rx="18" fill="#ffffff" opacity=".045" stroke="#38bdf8" stroke-width="1.5"/>
  <g opacity=".95"><polygon points="743.9,380.0 640.0,440.0 536.1,380.0 536.1,260.0 640.0,200.0 743.9,260.0" fill="#0f172a" stroke="#38bdf8" stroke-width="6"/><circle cx="640" cy="320" r="56" fill="#38bdf8" opacity=".25" stroke="#fb7185" stroke-width="5"/><g stroke="#fb7185" stroke-width="7" stroke-linecap="round"><line x1="640" y1="200" x2="640" y2="440"/><line x1="536" y1="260" x2="744" y2="380"/><line x1="536" y1="380" x2="744" y2="260"/></g></g>
  <path d="M80 610 C310 530 460 660 690 585 C870 526 1030 558 1200 485" fill="none" stroke="#fb7185" stroke-width="4" opacity=".28"/>
  <rect x="64" y="56" width="1152" height="608" rx="36" fill="none" stroke="#e2e8f0" stroke-width="2" opacity=".12"/>
</svg>