<svg xmlns="http://www.w3.org/2000/svg" viewBox="0 0 1280 720" width="1280" height="720" role="img" aria-label="Gleam으로 시작하는 타입 안전 함수형 프로그래밍">
<defs><linearGradient id="bg" x1="0" y1="0" x2="1" y2="1"><stop offset="0" stop-color="#052e16"/><stop offset="1" stop-color="#064e3b"/></linearGradient><radialGradient id="glow" cx="50%" cy="44%" r="55%"><stop offset="0" stop-color="#34d399" stop-opacity=".30"/><stop offset="1" stop-color="#34d399" stop-opacity="0"/></radialGradient><pattern id="grid" width="48" height="48" patternUnits="userSpaceOnUse"><path d="M48 0 L0 0 0 48" fill="none" stroke="#94a3b8" stroke-width=".7" opacity=".15"/></pattern></defs>
<rect width="1280" height="720" fill="url(#bg)"/><rect width="1280" height="720" fill="url(#grid)"/><rect width="1280" height="720" fill="url(#glow)"/><circle cx="897" cy="212" r="1" fill="#e2e8f0" opacity="0.29"/><circle cx="350" cy="280" r="1" fill="#e2e8f0" opacity="0.12"/><circle cx="437" cy="266" r="2" fill="#e2e8f0" opacity="0.19"/><circle cx="1075" cy="44" r="1" fill="#e2e8f0" opacity="0.12"/><circle cx="969" cy="599" r="1" fill="#e2e8f0" opacity="0.27"/><circle cx="28" cy="124" r="1" fill="#e2e8f0" opacity="0.13"/><circle cx="1088" cy="500" r="2" fill="#e2e8f0" opacity="0.28"/><circle cx="691" cy="239" r="1" fill="#e2e8f0" opacity="0.32"/><circle cx="1096" cy="51" r="1" fill="#e2e8f0" opacity="0.26"/><circle cx="113" cy="690" r="1" fill="#e2e8f0" opacity="0.16"/><circle cx="1189" cy="635" r="1" fill="#e2e8f0" opacity="0.14"/><circle cx="842" cy="296" r="2" fill="#e2e8f0" opacity="0.21"/><circle cx="813" cy="162" r="2" fill="#e2e8f0" opacity="0.39"/><circle cx="139" cy="98" r="1" fill="#e2e8f0" opacity="0.38"/><circle cx="672" cy="585" r="1" fill="#e2e8f0" opacity="0.34"/><circle cx="682" cy="417" r="2" fill="#e2e8f0" opacity="0.21"/><circle cx="584" cy="471" r="1" fill="#e2e8f0" opacity="0.32"/><circle cx="381" cy="342" r="1" fill="#e2e8f0" opacity="0.30"/><circle cx="423" cy="664" r="2" fill="#e2e8f0" opacity="0.29"/><circle cx="27" cy="418" r="1" fill="#e2e8f0" opacity="0.23"/><circle cx="981" cy="321" r="1" fill="#e2e8f0" opacity="0.15"/><circle cx="1086" cy="518" r="2" fill="#e2e8f0" opacity="0.25"/><circle cx="744" cy="498" r="1" fill="#e2e8f0" opacity="0.22"/><circle cx="254" cy="320" r="2" fill="#e2e8f0" opacity="0.13"/><circle cx="203" cy="40" r="2" fill="#e2e8f0" opacity="0.39"/><circle cx="784" cy="665" r="1" fill="#e2e8f0" opacity="0.41"/><circle cx="498" cy="481" r="1" fill="#e2e8f0" opacity="0.23"/><circle cx="973" cy="589" r="1" fill="#e2e8f0" opacity="0.39"/><circle cx="768" cy="246" r="1" fill="#e2e8f0" opacity="0.15"/><circle cx="885" cy="577" r="2" fill="#e2e8f0" opacity="0.14"/><circle cx="48" cy="392" r="2" fill="#e2e8f0" opacity="0.41"/><circle cx="700" cy="99" r="1" fill="#e2e8f0" opacity="0.23"/><circle cx="95" cy="558" r="2" fill="#e2e8f0" opacity="0.18"/><circle cx="513" cy="684" r="2" fill="#e2e8f0" opacity="0.14"/><circle cx="658" cy="306" r="1" fill="#e2e8f0" opacity="0.38"/><circle cx="1048" cy="219" r="2" fill="#e2e8f0" opacity="0.15"/><circle cx="912" cy="170" r="1" fill="#e2e8f0" opacity="0.39"/><circle cx="516" cy="665" r="1" fill="#e2e8f0" opacity="0.32"/><circle cx="655" cy="404" r="1" fill="#e2e8f0" opacity="0.39"/><circle cx="1024" cy="105" r="1" fill="#e2e8f0" opacity="0.34"/><circle cx="1250" cy="493" r="1" fill="#e2e8f0" opacity="0.22"/><circle cx="952" cy="402" r="2" fill="#e2e8f0" opacity="0.33"/><circle cx="576" cy="450" r="1" fill="#e2e8f0" opacity="0.12"/><circle cx="499" cy="117" r="1" fill="#e2e8f0" opacity="0.15"/><circle cx="689" cy="432" r="2" fill="#e2e8f0" opacity="0.13"/><rect x="80" y="95" width="192" height="128" rx="18" fill="#fff" opacity=".045" stroke="#34d399" stroke-width="1.4"/><rect x="295" y="490" width="182" height="94" rx="18" fill="#fff" opacity=".045" stroke="#34d399" stroke-width="1.4"/><rect x="510" y="95" width="228" height="131" rx="18" fill="#fff" opacity=".045" stroke="#34d399" stroke-width="1.4"/><rect x="725" y="490" width="190" height="91" rx="18" fill="#fff" opacity=".045" stroke="#34d399" stroke-width="1.4"/><rect x="940" y="95" width="222" height="110" rx="18" fill="#fff" opacity=".045" stroke="#34d399" stroke-width="1.4"/><rect x="1155" y="490" width="239" height="123" rx="18" fill="#fff" opacity=".045" stroke="#34d399" stroke-width="1.4"/><g><rect x="395" y="175" width="490" height="315" rx="30" fill="#0f172a" stroke="#34d399" stroke-width="5"/><circle cx="535" cy="330" r="58" fill="#34d399" opacity=".45"/><circle cx="745" cy="330" r="58" fill="#fbbf24" opacity=".38"/><path d="M590 330 H690" stroke="#e2e8f0" stroke-width="10" stroke-linecap="round"/></g><path d="M80 610 C310 530 460 660 690 585 C870 526 1030 558 1200 485" fill="none" stroke="#fbbf24" stroke-width="4" opacity=".28"/><rect x="64" y="56" width="1152" height="608" rx="36" fill="none" stroke="#e2e8f0" stroke-width="2" opacity=".12"/></svg>