<svg xmlns="http://www.w3.org/2000/svg" viewBox="0 0 1280 720" width="1280" height="720" role="img" aria-label="후행지표만으로 수익이 가능할까? — 예측 없는 트레이딩 전략 실험기">
<defs><linearGradient id="bg" x1="0" y1="0" x2="1" y2="1"><stop offset="0" stop-color="#022c22"/><stop offset="1" stop-color="#064e3b"/></linearGradient><radialGradient id="glow" cx="50%" cy="44%" r="55%"><stop offset="0" stop-color="#10b981" stop-opacity=".30"/><stop offset="1" stop-color="#10b981" stop-opacity="0"/></radialGradient><pattern id="grid" width="48" height="48" patternUnits="userSpaceOnUse"><path d="M48 0 L0 0 0 48" fill="none" stroke="#94a3b8" stroke-width=".7" opacity=".15"/></pattern></defs>
<rect width="1280" height="720" fill="url(#bg)"/><rect width="1280" height="720" fill="url(#grid)"/><rect width="1280" height="720" fill="url(#glow)"/><circle cx="978" cy="191" r="1" fill="#e2e8f0" opacity="0.30"/><circle cx="212" cy="290" r="1" fill="#e2e8f0" opacity="0.38"/><circle cx="540" cy="582" r="2" fill="#e2e8f0" opacity="0.41"/><circle cx="1117" cy="490" r="2" fill="#e2e8f0" opacity="0.37"/><circle cx="437" cy="50" r="2" fill="#e2e8f0" opacity="0.26"/><circle cx="222" cy="181" r="1" fill="#e2e8f0" opacity="0.28"/><circle cx="569" cy="446" r="1" fill="#e2e8f0" opacity="0.36"/><circle cx="1111" cy="37" r="1" fill="#e2e8f0" opacity="0.14"/><circle cx="929" cy="340" r="2" fill="#e2e8f0" opacity="0.18"/><circle cx="81" cy="330" r="1" fill="#e2e8f0" opacity="0.40"/><circle cx="797" cy="681" r="1" fill="#e2e8f0" opacity="0.40"/><circle cx="453" cy="457" r="1" fill="#e2e8f0" opacity="0.19"/><circle cx="904" cy="469" r="1" fill="#e2e8f0" opacity="0.14"/><circle cx="1242" cy="368" r="1" fill="#e2e8f0" opacity="0.20"/><circle cx="699" cy="103" r="1" fill="#e2e8f0" opacity="0.31"/><circle cx="236" cy="206" r="2" fill="#e2e8f0" opacity="0.41"/><circle cx="1240" cy="480" r="1" fill="#e2e8f0" opacity="0.34"/><circle cx="408" cy="404" r="1" fill="#e2e8f0" opacity="0.25"/><circle cx="477" cy="179" r="1" fill="#e2e8f0" opacity="0.14"/><circle cx="1246" cy="441" r="2" fill="#e2e8f0" opacity="0.33"/><circle cx="446" cy="677" r="1" fill="#e2e8f0" opacity="0.17"/><circle cx="1229" cy="621" r="2" fill="#e2e8f0" opacity="0.32"/><circle cx="1067" cy="445" r="2" fill="#e2e8f0" opacity="0.32"/><circle cx="681" cy="449" r="1" fill="#e2e8f0" opacity="0.40"/><circle cx="970" cy="358" r="2" fill="#e2e8f0" opacity="0.33"/><circle cx="615" cy="55" r="1" fill="#e2e8f0" opacity="0.13"/><circle cx="88" cy="617" r="1" fill="#e2e8f0" opacity="0.36"/><circle cx="1221" cy="169" r="1" fill="#e2e8f0" opacity="0.42"/><circle cx="99" cy="110" r="1" fill="#e2e8f0" opacity="0.18"/><circle cx="800" cy="568" r="2" fill="#e2e8f0" opacity="0.33"/><circle cx="559" cy="189" r="1" fill="#e2e8f0" opacity="0.14"/><circle cx="143" cy="564" r="1" fill="#e2e8f0" opacity="0.26"/><circle cx="474" cy="365" r="1" fill="#e2e8f0" opacity="0.15"/><circle cx="30" cy="504" r="1" fill="#e2e8f0" opacity="0.31"/><circle cx="629" cy="60" r="1" fill="#e2e8f0" opacity="0.39"/><circle cx="86" cy="635" r="1" fill="#e2e8f0" opacity="0.20"/><circle cx="700" cy="34" r="1" fill="#e2e8f0" opacity="0.12"/><circle cx="275" cy="109" r="1" fill="#e2e8f0" opacity="0.28"/><circle cx="381" cy="147" r="1" fill="#e2e8f0" opacity="0.24"/><circle cx="896" cy="389" r="2" fill="#e2e8f0" opacity="0.29"/><circle cx="1123" cy="269" r="1" fill="#e2e8f0" opacity="0.14"/><circle cx="366" cy="40" r="2" fill="#e2e8f0" opacity="0.14"/><circle cx="718" cy="63" r="1" fill="#e2e8f0" opacity="0.41"/><circle cx="840" cy="92" r="1" fill="#e2e8f0" opacity="0.16"/><circle cx="1105" cy="411" r="1" fill="#e2e8f0" opacity="0.40"/><rect x="80" y="95" width="208" height="85" rx="18" fill="#fff" opacity=".045" stroke="#10b981" stroke-width="1.4"/><rect x="295" y="490" width="168" height="102" rx="18" fill="#fff" opacity=".045" stroke="#10b981" stroke-width="1.4"/><rect x="510" y="95" width="217" height="88" rx="18" fill="#fff" opacity=".045" stroke="#10b981" stroke-width="1.4"/><rect x="725" y="490" width="165" height="124" rx="18" fill="#fff" opacity=".045" stroke="#10b981" stroke-width="1.4"/><rect x="940" y="95" width="161" height="75" rx="18" fill="#fff" opacity=".045" stroke="#10b981" stroke-width="1.4"/><rect x="1155" y="490" width="145" height="96" rx="18" fill="#fff" opacity=".045" stroke="#10b981" stroke-width="1.4"/><g><rect x="395" y="175" width="490" height="315" rx="30" fill="#0f172a" stroke="#10b981" stroke-width="5"/><circle cx="535" cy="330" r="58" fill="#10b981" opacity=".45"/><circle cx="745" cy="330" r="58" fill="#a78bfa" opacity=".38"/><path d="M590 330 H690" stroke="#e2e8f0" stroke-width="10" stroke-linecap="round"/></g><path d="M80 610 C310 530 460 660 690 585 C870 526 1030 558 1200 485" fill="none" stroke="#a78bfa" stroke-width="4" opacity=".28"/><rect x="64" y="56" width="1152" height="608" rx="36" fill="none" stroke="#e2e8f0" stroke-width="2" opacity=".12"/></svg>