<svg xmlns="http://www.w3.org/2000/svg" viewBox="0 0 1280 720" width="1280" height="720" role="img" aria-label="엔터프라이즈 코딩 에이전트 경쟁 — OpenAI가 Gartner 리더로 오른 의미">
  <defs>
    <linearGradient id="bg" x1="0" y1="0" x2="1" y2="1"><stop offset="0" stop-color="#022c22"/><stop offset="1" stop-color="#064e3b"/></linearGradient>
    <radialGradient id="glow" cx="50%" cy="45%" r="55%"><stop offset="0" stop-color="#10b981" stop-opacity=".30"/><stop offset="1" stop-color="#10b981" stop-opacity="0"/></radialGradient>
    <pattern id="grid" width="48" height="48" patternUnits="userSpaceOnUse"><path d="M 48 0 L 0 0 0 48" fill="none" stroke="#94a3b8" stroke-width=".7" opacity=".16"/></pattern>
  </defs>
  <rect width="1280" height="720" fill="url(#bg)"/>
  <rect width="1280" height="720" fill="url(#grid)"/>
  <rect width="1280" height="720" fill="url(#glow)"/>
  <circle cx="141" cy="45" r="2" fill="#e2e8f0" opacity="0.18"/><circle cx="366" cy="582" r="1" fill="#e2e8f0" opacity="0.38"/><circle cx="199" cy="53" r="1" fill="#e2e8f0" opacity="0.28"/><circle cx="202" cy="658" r="2" fill="#e2e8f0" opacity="0.17"/><circle cx="1235" cy="300" r="1" fill="#e2e8f0" opacity="0.22"/><circle cx="1235" cy="278" r="1" fill="#e2e8f0" opacity="0.23"/><circle cx="1133" cy="115" r="1" fill="#e2e8f0" opacity="0.43"/><circle cx="839" cy="78" r="1" fill="#e2e8f0" opacity="0.24"/><circle cx="598" cy="171" r="1" fill="#e2e8f0" opacity="0.27"/><circle cx="408" cy="455" r="1" fill="#e2e8f0" opacity="0.29"/><circle cx="243" cy="55" r="1" fill="#e2e8f0" opacity="0.29"/><circle cx="143" cy="192" r="1" fill="#e2e8f0" opacity="0.17"/><circle cx="416" cy="330" r="2" fill="#e2e8f0" opacity="0.34"/><circle cx="754" cy="201" r="1" fill="#e2e8f0" opacity="0.25"/><circle cx="1194" cy="428" r="2" fill="#e2e8f0" opacity="0.38"/><circle cx="1011" cy="608" r="2" fill="#e2e8f0" opacity="0.38"/><circle cx="1039" cy="615" r="1" fill="#e2e8f0" opacity="0.37"/><circle cx="810" cy="668" r="1" fill="#e2e8f0" opacity="0.39"/><circle cx="608" cy="654" r="1" fill="#e2e8f0" opacity="0.33"/><circle cx="1153" cy="527" r="2" fill="#e2e8f0" opacity="0.31"/><circle cx="324" cy="72" r="1" fill="#e2e8f0" opacity="0.26"/><circle cx="529" cy="88" r="2" fill="#e2e8f0" opacity="0.39"/><circle cx="265" cy="230" r="1" fill="#e2e8f0" opacity="0.14"/><circle cx="97" cy="201" r="1" fill="#e2e8f0" opacity="0.43"/><circle cx="409" cy="556" r="1" fill="#e2e8f0" opacity="0.33"/><circle cx="441" cy="420" r="1" fill="#e2e8f0" opacity="0.44"/><circle cx="743" cy="210" r="1" fill="#e2e8f0" opacity="0.30"/><circle cx="691" cy="250" r="2" fill="#e2e8f0" opacity="0.21"/><circle cx="93" cy="549" r="1" fill="#e2e8f0" opacity="0.27"/><circle cx="756" cy="566" r="1" fill="#e2e8f0" opacity="0.41"/><circle cx="1140" cy="304" r="2" fill="#e2e8f0" opacity="0.32"/><circle cx="336" cy="484" r="1" fill="#e2e8f0" opacity="0.22"/><circle cx="854" cy="122" r="2" fill="#e2e8f0" opacity="0.34"/><circle cx="272" cy="448" r="1" fill="#e2e8f0" opacity="0.25"/><circle cx="938" cy="275" r="2" fill="#e2e8f0" opacity="0.33"/><circle cx="1215" cy="536" r="2" fill="#e2e8f0" opacity="0.39"/><circle cx="411" cy="387" r="1" fill="#e2e8f0" opacity="0.18"/><circle cx="770" cy="183" r="1" fill="#e2e8f0" opacity="0.17"/><circle cx="707" cy="250" r="1" fill="#e2e8f0" opacity="0.20"/><circle cx="879" cy="620" r="1" fill="#e2e8f0" opacity="0.31"/><circle cx="294" cy="161" r="1" fill="#e2e8f0" opacity="0.20"/><circle cx="540" cy="292" r="1" fill="#e2e8f0" opacity="0.13"/>
  <rect x="80" y="95" width="214" height="73" rx="18" fill="#ffffff" opacity=".045" stroke="#10b981" stroke-width="1.5"/><rect x="310" y="485" width="168" height="127" rx="18" fill="#ffffff" opacity=".045" stroke="#10b981" stroke-width="1.5"/><rect x="540" y="95" width="177" height="115" rx="18" fill="#ffffff" opacity=".045" stroke="#10b981" stroke-width="1.5"/><rect x="770" y="485" width="176" height="92" rx="18" fill="#ffffff" opacity=".045" stroke="#10b981" stroke-width="1.5"/><rect x="1000" y="95" width="216" height="110" rx="18" fill="#ffffff" opacity=".045" stroke="#10b981" stroke-width="1.5"/>
  <g opacity=".95"><g fill="#0f172a" stroke="#10b981" stroke-width="4"><rect x="380" y="190" width="150" height="220" rx="18"/><rect x="565" y="145" width="150" height="265" rx="18"/><rect x="750" y="230" width="150" height="180" rx="18"/></g><g stroke="#a78bfa" stroke-width="6" opacity=".8"><line x1="455" y1="300" x2="640" y2="275"/><line x1="640" y1="275" x2="825" y2="320"/></g><circle cx="640" cy="275" r="34" fill="#a78bfa" opacity=".85"/></g>
  <path d="M80 610 C310 530 460 660 690 585 C870 526 1030 558 1200 485" fill="none" stroke="#a78bfa" stroke-width="4" opacity=".28"/>
  <rect x="64" y="56" width="1152" height="608" rx="36" fill="none" stroke="#e2e8f0" stroke-width="2" opacity=".12"/>
</svg>