<svg xmlns="http://www.w3.org/2000/svg" viewBox="0 0 1280 720" width="1280" height="720" role="img" aria-label="OpenAI Sora API 중단 — 비디오 AI 전략 재편의 신호탄">
<defs><linearGradient id="bg" x1="0" y1="0" x2="1" y2="1"><stop offset="0" stop-color="#052e16"/><stop offset="1" stop-color="#064e3b"/></linearGradient><radialGradient id="glow" cx="50%" cy="44%" r="55%"><stop offset="0" stop-color="#34d399" stop-opacity=".30"/><stop offset="1" stop-color="#34d399" stop-opacity="0"/></radialGradient><pattern id="grid" width="48" height="48" patternUnits="userSpaceOnUse"><path d="M48 0 L0 0 0 48" fill="none" stroke="#94a3b8" stroke-width=".7" opacity=".15"/></pattern></defs>
<rect width="1280" height="720" fill="url(#bg)"/><rect width="1280" height="720" fill="url(#grid)"/><rect width="1280" height="720" fill="url(#glow)"/><circle cx="570" cy="434" r="1" fill="#e2e8f0" opacity="0.28"/><circle cx="723" cy="375" r="1" fill="#e2e8f0" opacity="0.33"/><circle cx="347" cy="265" r="1" fill="#e2e8f0" opacity="0.42"/><circle cx="648" cy="643" r="2" fill="#e2e8f0" opacity="0.23"/><circle cx="758" cy="617" r="1" fill="#e2e8f0" opacity="0.41"/><circle cx="552" cy="418" r="2" fill="#e2e8f0" opacity="0.35"/><circle cx="409" cy="448" r="1" fill="#e2e8f0" opacity="0.15"/><circle cx="892" cy="528" r="2" fill="#e2e8f0" opacity="0.36"/><circle cx="766" cy="478" r="2" fill="#e2e8f0" opacity="0.36"/><circle cx="265" cy="76" r="1" fill="#e2e8f0" opacity="0.32"/><circle cx="879" cy="93" r="2" fill="#e2e8f0" opacity="0.37"/><circle cx="1032" cy="624" r="2" fill="#e2e8f0" opacity="0.33"/><circle cx="184" cy="426" r="2" fill="#e2e8f0" opacity="0.26"/><circle cx="105" cy="479" r="2" fill="#e2e8f0" opacity="0.27"/><circle cx="708" cy="519" r="1" fill="#e2e8f0" opacity="0.19"/><circle cx="329" cy="176" r="1" fill="#e2e8f0" opacity="0.42"/><circle cx="671" cy="251" r="1" fill="#e2e8f0" opacity="0.42"/><circle cx="1230" cy="86" r="1" fill="#e2e8f0" opacity="0.23"/><circle cx="1046" cy="674" r="1" fill="#e2e8f0" opacity="0.12"/><circle cx="742" cy="417" r="2" fill="#e2e8f0" opacity="0.31"/><circle cx="407" cy="241" r="1" fill="#e2e8f0" opacity="0.20"/><circle cx="618" cy="414" r="1" fill="#e2e8f0" opacity="0.32"/><circle cx="162" cy="273" r="1" fill="#e2e8f0" opacity="0.14"/><circle cx="797" cy="84" r="1" fill="#e2e8f0" opacity="0.33"/><circle cx="1240" cy="658" r="1" fill="#e2e8f0" opacity="0.33"/><circle cx="50" cy="530" r="2" fill="#e2e8f0" opacity="0.23"/><circle cx="619" cy="101" r="1" fill="#e2e8f0" opacity="0.35"/><circle cx="796" cy="520" r="2" fill="#e2e8f0" opacity="0.28"/><circle cx="768" cy="210" r="1" fill="#e2e8f0" opacity="0.17"/><circle cx="1255" cy="192" r="1" fill="#e2e8f0" opacity="0.17"/><circle cx="733" cy="417" r="2" fill="#e2e8f0" opacity="0.41"/><circle cx="666" cy="608" r="1" fill="#e2e8f0" opacity="0.13"/><circle cx="539" cy="558" r="1" fill="#e2e8f0" opacity="0.30"/><circle cx="348" cy="297" r="2" fill="#e2e8f0" opacity="0.24"/><circle cx="667" cy="77" r="2" fill="#e2e8f0" opacity="0.33"/><circle cx="1050" cy="239" r="1" fill="#e2e8f0" opacity="0.21"/><circle cx="297" cy="530" r="1" fill="#e2e8f0" opacity="0.20"/><circle cx="367" cy="655" r="1" fill="#e2e8f0" opacity="0.41"/><circle cx="1117" cy="412" r="1" fill="#e2e8f0" opacity="0.22"/><circle cx="490" cy="446" r="2" fill="#e2e8f0" opacity="0.29"/><circle cx="369" cy="133" r="1" fill="#e2e8f0" opacity="0.19"/><circle cx="173" cy="306" r="2" fill="#e2e8f0" opacity="0.30"/><circle cx="256" cy="154" r="2" fill="#e2e8f0" opacity="0.40"/><circle cx="73" cy="440" r="1" fill="#e2e8f0" opacity="0.36"/><circle cx="216" cy="575" r="1" fill="#e2e8f0" opacity="0.27"/><rect x="80" y="95" width="209" height="80" rx="18" fill="#fff" opacity=".045" stroke="#34d399" stroke-width="1.4"/><rect x="295" y="490" width="232" height="86" rx="18" fill="#fff" opacity=".045" stroke="#34d399" stroke-width="1.4"/><rect x="510" y="95" width="235" height="117" rx="18" fill="#fff" opacity=".045" stroke="#34d399" stroke-width="1.4"/><rect x="725" y="490" width="224" height="91" rx="18" fill="#fff" opacity=".045" stroke="#34d399" stroke-width="1.4"/><rect x="940" y="95" width="148" height="79" rx="18" fill="#fff" opacity=".045" stroke="#34d399" stroke-width="1.4"/><rect x="1155" y="490" width="195" height="120" rx="18" fill="#fff" opacity=".045" stroke="#34d399" stroke-width="1.4"/><g><g stroke="#fbbf24" stroke-width="6" opacity=".78"><line x1="500" y1="250" x2="630" y2="320"/><line x1="630" y1="320" x2="780" y2="250"/><line x1="630" y1="320" x2="650" y2="455"/><line x1="500" y1="250" x2="650" y2="455"/><line x1="780" y1="250" x2="650" y2="455"/></g><g fill="#34d399"><circle cx="500" cy="250" r="38"/><circle cx="780" cy="250" r="38"/><circle cx="630" cy="320" r="48"/><circle cx="650" cy="455" r="38"/></g></g><path d="M80 610 C310 530 460 660 690 585 C870 526 1030 558 1200 485" fill="none" stroke="#fbbf24" stroke-width="4" opacity=".28"/><rect x="64" y="56" width="1152" height="608" rx="36" fill="none" stroke="#e2e8f0" stroke-width="2" opacity=".12"/></svg>