<svg xmlns="http://www.w3.org/2000/svg" viewBox="0 0 1280 720" width="1280" height="720" role="img" aria-label="AI 에이전트 팀 운영기 — Jira Issue를 업무 인수인계 인터페이스로 쓰기">
  <defs>
    <linearGradient id="bg" x1="0" y1="0" x2="1" y2="1"><stop offset="0" stop-color="#0f172a"/><stop offset="1" stop-color="#164e63"/></linearGradient>
    <radialGradient id="glow" cx="50%" cy="45%" r="55%"><stop offset="0" stop-color="#22d3ee" stop-opacity=".30"/><stop offset="1" stop-color="#22d3ee" stop-opacity="0"/></radialGradient>
    <pattern id="grid" width="48" height="48" patternUnits="userSpaceOnUse"><path d="M 48 0 L 0 0 0 48" fill="none" stroke="#94a3b8" stroke-width=".7" opacity=".16"/></pattern>
  </defs>
  <rect width="1280" height="720" fill="url(#bg)"/>
  <rect width="1280" height="720" fill="url(#grid)"/>
  <rect width="1280" height="720" fill="url(#glow)"/>
  <circle cx="1115" cy="229" r="2" fill="#e2e8f0" opacity="0.16"/><circle cx="270" cy="104" r="1" fill="#e2e8f0" opacity="0.32"/><circle cx="423" cy="165" r="1" fill="#e2e8f0" opacity="0.33"/><circle cx="1130" cy="246" r="1" fill="#e2e8f0" opacity="0.19"/><circle cx="1150" cy="379" r="2" fill="#e2e8f0" opacity="0.25"/><circle cx="716" cy="341" r="2" fill="#e2e8f0" opacity="0.40"/><circle cx="586" cy="68" r="1" fill="#e2e8f0" opacity="0.42"/><circle cx="1130" cy="55" r="1" fill="#e2e8f0" opacity="0.20"/><circle cx="345" cy="263" r="2" fill="#e2e8f0" opacity="0.43"/><circle cx="822" cy="295" r="1" fill="#e2e8f0" opacity="0.30"/><circle cx="514" cy="369" r="1" fill="#e2e8f0" opacity="0.40"/><circle cx="1181" cy="66" r="1" fill="#e2e8f0" opacity="0.44"/><circle cx="365" cy="104" r="2" fill="#e2e8f0" opacity="0.35"/><circle cx="1243" cy="308" r="1" fill="#e2e8f0" opacity="0.21"/><circle cx="608" cy="611" r="1" fill="#e2e8f0" opacity="0.16"/><circle cx="83" cy="354" r="2" fill="#e2e8f0" opacity="0.28"/><circle cx="102" cy="343" r="1" fill="#e2e8f0" opacity="0.14"/><circle cx="447" cy="242" r="2" fill="#e2e8f0" opacity="0.12"/><circle cx="1004" cy="574" r="1" fill="#e2e8f0" opacity="0.27"/><circle cx="989" cy="205" r="1" fill="#e2e8f0" opacity="0.26"/><circle cx="66" cy="420" r="1" fill="#e2e8f0" opacity="0.40"/><circle cx="585" cy="160" r="1" fill="#e2e8f0" opacity="0.44"/><circle cx="42" cy="497" r="1" fill="#e2e8f0" opacity="0.31"/><circle cx="760" cy="274" r="1" fill="#e2e8f0" opacity="0.33"/><circle cx="100" cy="132" r="1" fill="#e2e8f0" opacity="0.31"/><circle cx="1188" cy="655" r="2" fill="#e2e8f0" opacity="0.38"/><circle cx="44" cy="266" r="1" fill="#e2e8f0" opacity="0.28"/><circle cx="470" cy="269" r="2" fill="#e2e8f0" opacity="0.33"/><circle cx="982" cy="433" r="2" fill="#e2e8f0" opacity="0.17"/><circle cx="710" cy="362" r="2" fill="#e2e8f0" opacity="0.35"/><circle cx="1034" cy="431" r="1" fill="#e2e8f0" opacity="0.36"/><circle cx="684" cy="639" r="1" fill="#e2e8f0" opacity="0.38"/><circle cx="101" cy="140" r="1" fill="#e2e8f0" opacity="0.39"/><circle cx="531" cy="256" r="1" fill="#e2e8f0" opacity="0.18"/><circle cx="871" cy="360" r="1" fill="#e2e8f0" opacity="0.40"/><circle cx="689" cy="658" r="1" fill="#e2e8f0" opacity="0.20"/><circle cx="217" cy="158" r="2" fill="#e2e8f0" opacity="0.29"/><circle cx="1075" cy="235" r="1" fill="#e2e8f0" opacity="0.43"/><circle cx="748" cy="593" r="2" fill="#e2e8f0" opacity="0.18"/><circle cx="242" cy="345" r="1" fill="#e2e8f0" opacity="0.18"/><circle cx="257" cy="633" r="1" fill="#e2e8f0" opacity="0.20"/><circle cx="1000" cy="59" r="1" fill="#e2e8f0" opacity="0.13"/>
  <rect x="80" y="95" width="182" height="96" rx="18" fill="#ffffff" opacity=".045" stroke="#22d3ee" stroke-width="1.5"/><rect x="310" y="485" width="177" height="110" rx="18" fill="#ffffff" opacity=".045" stroke="#22d3ee" stroke-width="1.5"/><rect x="540" y="95" width="157" height="82" rx="18" fill="#ffffff" opacity=".045" stroke="#22d3ee" stroke-width="1.5"/><rect x="770" y="485" width="208" height="94" rx="18" fill="#ffffff" opacity=".045" stroke="#22d3ee" stroke-width="1.5"/><rect x="1000" y="95" width="181" height="81" rx="18" fill="#ffffff" opacity=".045" stroke="#22d3ee" stroke-width="1.5"/>
  <g opacity=".95"><circle cx="500" cy="310" r="44" fill="#22d3ee" opacity=".9"/><circle cx="780" cy="310" r="44" fill="#a78bfa" opacity=".9"/><path d="M560 310 C620 250 660 370 720 310" stroke="#e2e8f0" stroke-width="12" fill="none" stroke-linecap="round"/><path d="M695 285 L730 310 L695 335" fill="none" stroke="#e2e8f0" stroke-width="10" stroke-linecap="round" stroke-linejoin="round"/></g>
  <path d="M80 610 C310 530 460 660 690 585 C870 526 1030 558 1200 485" fill="none" stroke="#a78bfa" stroke-width="4" opacity=".28"/>
  <rect x="64" y="56" width="1152" height="608" rx="36" fill="none" stroke="#e2e8f0" stroke-width="2" opacity=".12"/>
</svg>