<svg xmlns="http://www.w3.org/2000/svg" viewBox="0 0 1280 720" width="1280" height="720" role="img" aria-label="TypeScript 6.0 RC 분석: ES5 폐기와 TypeScript 7.0 Go 포트 준비">
<defs><linearGradient id="bg" x1="0" y1="0" x2="1" y2="1"><stop offset="0" stop-color="#4c0519"/><stop offset="1" stop-color="#881337"/></linearGradient><radialGradient id="glow" cx="50%" cy="44%" r="55%"><stop offset="0" stop-color="#fb7185" stop-opacity=".30"/><stop offset="1" stop-color="#fb7185" stop-opacity="0"/></radialGradient><pattern id="grid" width="48" height="48" patternUnits="userSpaceOnUse"><path d="M48 0 L0 0 0 48" fill="none" stroke="#94a3b8" stroke-width=".7" opacity=".15"/></pattern></defs>
<rect width="1280" height="720" fill="url(#bg)"/><rect width="1280" height="720" fill="url(#grid)"/><rect width="1280" height="720" fill="url(#glow)"/><circle cx="1170" cy="564" r="1" fill="#e2e8f0" opacity="0.33"/><circle cx="1247" cy="117" r="1" fill="#e2e8f0" opacity="0.16"/><circle cx="45" cy="372" r="1" fill="#e2e8f0" opacity="0.19"/><circle cx="171" cy="95" r="1" fill="#e2e8f0" opacity="0.34"/><circle cx="149" cy="512" r="1" fill="#e2e8f0" opacity="0.40"/><circle cx="495" cy="447" r="2" fill="#e2e8f0" opacity="0.20"/><circle cx="987" cy="180" r="1" fill="#e2e8f0" opacity="0.15"/><circle cx="337" cy="330" r="1" fill="#e2e8f0" opacity="0.16"/><circle cx="87" cy="435" r="1" fill="#e2e8f0" opacity="0.35"/><circle cx="188" cy="565" r="1" fill="#e2e8f0" opacity="0.27"/><circle cx="202" cy="164" r="1" fill="#e2e8f0" opacity="0.24"/><circle cx="648" cy="101" r="1" fill="#e2e8f0" opacity="0.32"/><circle cx="1215" cy="460" r="2" fill="#e2e8f0" opacity="0.38"/><circle cx="210" cy="326" r="2" fill="#e2e8f0" opacity="0.21"/><circle cx="161" cy="532" r="1" fill="#e2e8f0" opacity="0.16"/><circle cx="121" cy="103" r="1" fill="#e2e8f0" opacity="0.29"/><circle cx="252" cy="646" r="2" fill="#e2e8f0" opacity="0.35"/><circle cx="988" cy="308" r="1" fill="#e2e8f0" opacity="0.20"/><circle cx="58" cy="183" r="1" fill="#e2e8f0" opacity="0.38"/><circle cx="1016" cy="336" r="1" fill="#e2e8f0" opacity="0.18"/><circle cx="954" cy="111" r="1" fill="#e2e8f0" opacity="0.20"/><circle cx="959" cy="371" r="1" fill="#e2e8f0" opacity="0.32"/><circle cx="549" cy="205" r="1" fill="#e2e8f0" opacity="0.16"/><circle cx="732" cy="87" r="2" fill="#e2e8f0" opacity="0.22"/><circle cx="757" cy="650" r="1" fill="#e2e8f0" opacity="0.31"/><circle cx="1192" cy="675" r="2" fill="#e2e8f0" opacity="0.32"/><circle cx="76" cy="655" r="1" fill="#e2e8f0" opacity="0.21"/><circle cx="1090" cy="653" r="1" fill="#e2e8f0" opacity="0.24"/><circle cx="470" cy="478" r="2" fill="#e2e8f0" opacity="0.23"/><circle cx="577" cy="343" r="1" fill="#e2e8f0" opacity="0.19"/><circle cx="99" cy="411" r="1" fill="#e2e8f0" opacity="0.26"/><circle cx="575" cy="326" r="1" fill="#e2e8f0" opacity="0.32"/><circle cx="161" cy="497" r="1" fill="#e2e8f0" opacity="0.19"/><circle cx="716" cy="85" r="1" fill="#e2e8f0" opacity="0.25"/><circle cx="268" cy="646" r="1" fill="#e2e8f0" opacity="0.17"/><circle cx="568" cy="81" r="2" fill="#e2e8f0" opacity="0.12"/><circle cx="263" cy="42" r="1" fill="#e2e8f0" opacity="0.12"/><circle cx="919" cy="413" r="1" fill="#e2e8f0" opacity="0.21"/><circle cx="133" cy="116" r="2" fill="#e2e8f0" opacity="0.42"/><circle cx="22" cy="231" r="1" fill="#e2e8f0" opacity="0.17"/><circle cx="403" cy="120" r="1" fill="#e2e8f0" opacity="0.37"/><circle cx="129" cy="161" r="2" fill="#e2e8f0" opacity="0.34"/><circle cx="948" cy="684" r="1" fill="#e2e8f0" opacity="0.17"/><circle cx="1123" cy="179" r="1" fill="#e2e8f0" opacity="0.19"/><circle cx="342" cy="569" r="1" fill="#e2e8f0" opacity="0.27"/><rect x="80" y="95" width="237" height="81" rx="18" fill="#fff" opacity=".045" stroke="#fb7185" stroke-width="1.4"/><rect x="295" y="490" width="168" height="123" rx="18" fill="#fff" opacity=".045" stroke="#fb7185" stroke-width="1.4"/><rect x="510" y="95" width="153" height="101" rx="18" fill="#fff" opacity=".045" stroke="#fb7185" stroke-width="1.4"/><rect x="725" y="490" width="199" height="107" rx="18" fill="#fff" opacity=".045" stroke="#fb7185" stroke-width="1.4"/><rect x="940" y="95" width="228" height="89" rx="18" fill="#fff" opacity=".045" stroke="#fb7185" stroke-width="1.4"/><rect x="1155" y="490" width="239" height="98" rx="18" fill="#fff" opacity=".045" stroke="#fb7185" stroke-width="1.4"/><g><rect x="370" y="180" width="540" height="320" rx="26" fill="#0f172a" stroke="#fb7185" stroke-width="4"/><path d="M485 300 l-70 55 l70 55 M795 300 l70 55 l-70 55 M610 430 l65 -175" stroke="#fbbf24" stroke-width="12" fill="none" stroke-linecap="round" stroke-linejoin="round"/></g><path d="M80 610 C310 530 460 660 690 585 C870 526 1030 558 1200 485" fill="none" stroke="#fbbf24" stroke-width="4" opacity=".28"/><rect x="64" y="56" width="1152" height="608" rx="36" fill="none" stroke="#e2e8f0" stroke-width="2" opacity=".12"/></svg>