<svg xmlns="http://www.w3.org/2000/svg" viewBox="0 0 1280 720" width="1280" height="720" role="img" aria-label="과거 Jira Issue 검색으로 에이전트 삽질 줄이기 — 조직 기억을 활용하는 방법">
  <defs>
    <linearGradient id="bg" x1="0" y1="0" x2="1" y2="1"><stop offset="0" stop-color="#111827"/><stop offset="1" stop-color="#3730a3"/></linearGradient>
    <radialGradient id="glow" cx="50%" cy="45%" r="55%"><stop offset="0" stop-color="#818cf8" stop-opacity=".30"/><stop offset="1" stop-color="#818cf8" stop-opacity="0"/></radialGradient>
    <pattern id="grid" width="48" height="48" patternUnits="userSpaceOnUse"><path d="M 48 0 L 0 0 0 48" fill="none" stroke="#94a3b8" stroke-width=".7" opacity=".16"/></pattern>
  </defs>
  <rect width="1280" height="720" fill="url(#bg)"/>
  <rect width="1280" height="720" fill="url(#grid)"/>
  <rect width="1280" height="720" fill="url(#glow)"/>
  <circle cx="1052" cy="298" r="2" fill="#e2e8f0" opacity="0.34"/><circle cx="432" cy="313" r="1" fill="#e2e8f0" opacity="0.32"/><circle cx="475" cy="129" r="1" fill="#e2e8f0" opacity="0.43"/><circle cx="347" cy="589" r="1" fill="#e2e8f0" opacity="0.14"/><circle cx="960" cy="449" r="1" fill="#e2e8f0" opacity="0.31"/><circle cx="993" cy="615" r="2" fill="#e2e8f0" opacity="0.23"/><circle cx="143" cy="221" r="1" fill="#e2e8f0" opacity="0.27"/><circle cx="1011" cy="574" r="1" fill="#e2e8f0" opacity="0.13"/><circle cx="1040" cy="456" r="2" fill="#e2e8f0" opacity="0.40"/><circle cx="648" cy="264" r="1" fill="#e2e8f0" opacity="0.30"/><circle cx="453" cy="305" r="1" fill="#e2e8f0" opacity="0.28"/><circle cx="149" cy="356" r="2" fill="#e2e8f0" opacity="0.26"/><circle cx="254" cy="478" r="1" fill="#e2e8f0" opacity="0.30"/><circle cx="148" cy="541" r="1" fill="#e2e8f0" opacity="0.20"/><circle cx="535" cy="291" r="1" fill="#e2e8f0" opacity="0.12"/><circle cx="1049" cy="241" r="2" fill="#e2e8f0" opacity="0.34"/><circle cx="497" cy="61" r="1" fill="#e2e8f0" opacity="0.36"/><circle cx="888" cy="412" r="2" fill="#e2e8f0" opacity="0.22"/><circle cx="802" cy="72" r="1" fill="#e2e8f0" opacity="0.35"/><circle cx="125" cy="267" r="2" fill="#e2e8f0" opacity="0.24"/><circle cx="877" cy="334" r="2" fill="#e2e8f0" opacity="0.24"/><circle cx="266" cy="400" r="2" fill="#e2e8f0" opacity="0.21"/><circle cx="139" cy="351" r="1" fill="#e2e8f0" opacity="0.44"/><circle cx="1245" cy="77" r="1" fill="#e2e8f0" opacity="0.28"/><circle cx="737" cy="153" r="2" fill="#e2e8f0" opacity="0.27"/><circle cx="613" cy="656" r="2" fill="#e2e8f0" opacity="0.14"/><circle cx="1155" cy="230" r="1" fill="#e2e8f0" opacity="0.16"/><circle cx="381" cy="467" r="1" fill="#e2e8f0" opacity="0.15"/><circle cx="120" cy="429" r="2" fill="#e2e8f0" opacity="0.36"/><circle cx="1173" cy="244" r="1" fill="#e2e8f0" opacity="0.21"/><circle cx="439" cy="555" r="1" fill="#e2e8f0" opacity="0.23"/><circle cx="859" cy="62" r="2" fill="#e2e8f0" opacity="0.25"/><circle cx="596" cy="462" r="2" fill="#e2e8f0" opacity="0.24"/><circle cx="274" cy="601" r="1" fill="#e2e8f0" opacity="0.22"/><circle cx="880" cy="491" r="1" fill="#e2e8f0" opacity="0.29"/><circle cx="913" cy="257" r="2" fill="#e2e8f0" opacity="0.33"/><circle cx="143" cy="267" r="1" fill="#e2e8f0" opacity="0.17"/><circle cx="1075" cy="580" r="1" fill="#e2e8f0" opacity="0.14"/><circle cx="574" cy="147" r="1" fill="#e2e8f0" opacity="0.34"/><circle cx="1044" cy="333" r="1" fill="#e2e8f0" opacity="0.15"/><circle cx="84" cy="366" r="1" fill="#e2e8f0" opacity="0.24"/><circle cx="278" cy="150" r="2" fill="#e2e8f0" opacity="0.16"/>
  <rect x="80" y="95" width="175" height="77" rx="18" fill="#ffffff" opacity=".045" stroke="#818cf8" stroke-width="1.5"/><rect x="310" y="485" width="194" height="80" rx="18" fill="#ffffff" opacity=".045" stroke="#818cf8" stroke-width="1.5"/><rect x="540" y="95" width="155" height="89" rx="18" fill="#ffffff" opacity=".045" stroke="#818cf8" stroke-width="1.5"/><rect x="770" y="485" width="168" height="94" rx="18" fill="#ffffff" opacity=".045" stroke="#818cf8" stroke-width="1.5"/><rect x="1000" y="95" width="209" height="88" rx="18" fill="#ffffff" opacity=".045" stroke="#818cf8" stroke-width="1.5"/>
  <g opacity=".95"><g fill="none" stroke="#818cf8" stroke-width="5" opacity=".9"><circle cx="470" cy="230" r="32"/><circle cx="540" cy="320" r="32"/><circle cx="610" cy="230" r="32"/><circle cx="680" cy="320" r="32"/><circle cx="750" cy="230" r="32"/><circle cx="820" cy="320" r="32"/></g><g stroke="#34d399" stroke-width="6" opacity=".75"><line x1="470" y1="230" x2="540" y2="320"/><line x1="540" y1="320" x2="610" y2="230"/><line x1="610" y1="230" x2="680" y2="320"/><line x1="680" y1="320" x2="750" y2="230"/><line x1="750" y1="230" x2="820" y2="320"/></g><rect x="395" y="410" width="490" height="56" rx="18" fill="#0f172a" stroke="#34d399" stroke-width="3"/></g>
  <path d="M80 610 C310 530 460 660 690 585 C870 526 1030 558 1200 485" fill="none" stroke="#34d399" stroke-width="4" opacity=".28"/>
  <rect x="64" y="56" width="1152" height="608" rx="36" fill="none" stroke="#e2e8f0" stroke-width="2" opacity=".12"/>
</svg>